<?xml version="1.0" encoding="UTF-8" standalone="no"?>
<!-- Created with Inkscape (http://www.inkscape.org/) -->

<svg
   width="144.71721mm"
   height="56.410736mm"
   viewBox="0 0 144.71721 56.410736"
   version="1.1"
   id="svg3223"
   xmlns="http://www.w3.org/2000/svg"
   xmlns:svg="http://www.w3.org/2000/svg"
   xmlns:rdf="http://www.w3.org/1999/02/22-rdf-syntax-ns#"
   xmlns:cc="http://creativecommons.org/ns#"
   xmlns:dc="http://purl.org/dc/elements/1.1/">
  <defs
     id="defs3217" />
  <metadata
     id="metadata3220">
    <rdf:RDF>
      <cc:Work
         rdf:about="">
        <dc:format>image/svg+xml</dc:format>
        <dc:type
           rdf:resource="http://purl.org/dc/dcmitype/StillImage" />
        <dc:title />
      </cc:Work>
    </rdf:RDF>
  </metadata>
  <g
     id="layer1"
     transform="translate(-46.806752,-188.13993)">
    <g
       id="g4"
       transform="matrix(0.81168362,0,0,0.81168362,36.582257,115.83019)">
      <path
         style="fill:#ffffff"
         d="m 100.8257,149.06607 -0.17727,-0.27054 0.0757,-0.19081 c 0.0417,-0.10494 0.0985,-0.46352 0.12632,-0.79684 l 0.0506,-0.60604 -0.16864,-0.13996 -0.16863,-0.13995 -0.841291,0.12271 c -0.462711,0.0675 -1.289794,0.14323 -1.837961,0.1683 -0.548167,0.0251 -1.094497,0.0979 -1.214065,0.16195 -0.307306,0.16446 -0.289241,0.1776 -0.669305,-0.48668 l -0.345018,-0.60303 0.171949,-0.19 c 0.25494,-0.28171 1.176067,-0.47869 2.191684,-0.46869 l 0.89786,0.009 0.1342,-0.1617 0.1342,-0.1617 0.471949,0.0708 0.471948,0.0708 0.27118,-0.17769 0.27118,-0.17768 v -0.29895 c 0,-0.16445 -0.0726,-0.40261 -0.16127,-0.52924 l -0.16126,-0.23024 0.16126,-0.0619 0.16127,-0.0619 v -0.322 c 0,-0.1771 0.0486,-0.44985 0.10802,-0.60612 l 0.10802,-0.28412 -0.29487,-0.27327 -0.29487,-0.27328 -0.383043,0.071 c -0.210674,0.039 -0.537179,0.16569 -0.725566,0.28146 -0.188387,0.11577 -0.481476,0.20707 -0.651307,0.2029 -0.169832,-0.004 -0.708299,0.0399 -1.196594,0.0979 -0.488295,0.058 -0.990594,0.0786 -1.116219,0.0458 l -0.228411,-0.0597 -0.213533,0.19324 -0.213533,0.19325 -0.189965,-0.1722 -0.189965,-0.17219 v -0.78266 -0.78267 l 1.356891,-0.019 1.35689,-0.019 0.597032,-0.237 0.597031,-0.237 0.577031,-5e-5 c 0.317366,-3e-5 0.666961,-0.0482 0.776881,-0.10701 l 0.19985,-0.10696 -0.0568,-0.46294 c -0.10112,-0.82362 -0.48004,-1.16364 -0.891346,-0.79983 l -0.171374,0.15159 -0.57553,-0.1199 -0.575531,-0.11991 -0.215881,0.13482 c -0.118735,0.0742 -0.261308,0.10675 -0.316829,0.0724 -0.05552,-0.0343 -0.250288,0.0148 -0.432814,0.10923 l -0.331865,0.17161 -0.377385,-0.0708 -0.377384,-0.0708 -0.270168,0.17702 -0.270169,0.17703 -0.417879,-0.27654 -0.41788,-0.27654 -0.162491,0.0623 -0.162491,0.0624 -0.139022,-0.16752 -0.139022,-0.16751 0.289339,-0.37934 0.289338,-0.37934 0.293635,-0.0582 c 0.161499,-0.032 0.537874,-0.12782 0.83639,-0.21294 0.536193,-0.15291 0.840303,-0.19861 2.451256,-0.36832 0.452643,-0.0477 0.891038,-0.12877 0.97421,-0.18017 0.08317,-0.0514 0.396701,-0.13031 0.696733,-0.17535 0.30003,-0.045 0.6467,-0.11206 0.77038,-0.14895 l 0.22489,-0.0671 0.57222,0.45232 0.57222,0.45232 -0.0613,0.34228 c -0.0337,0.18825 -0.0118,0.80633 0.0486,1.37351 0.0605,0.56718 0.12817,1.27548 0.15043,1.57399 l 0.0405,0.54276 -0.14903,0.16642 -0.14902,0.16641 0.0355,0.48489 c 0.0195,0.26669 0.0693,0.72913 0.11062,1.02765 0.12739,0.92005 0.14156,1.83532 0.0318,2.05292 -0.0576,0.11415 -0.11121,0.86787 -0.11914,1.67492 l -0.0144,1.46736 -0.43369,0.19475 c -0.58523,0.26279 -0.77667,0.24918 -0.98588,-0.0701 z m -61.120508,0.0612 -0.449808,-0.0736 -0.395241,-0.34703 c -0.217383,-0.19086 -0.488341,-0.34702 -0.602129,-0.34702 h -0.206888 l 0.148243,-0.28574 0.148242,-0.28574 -0.104835,-0.27574 c -0.136063,-0.35787 -0.06713,-0.5176 0.305508,-0.70788 l 0.304101,-0.15528 0.360116,0.0545 0.360116,0.0545 0.278478,0.42081 0.278479,0.42081 h 0.515868 c 0.521233,0 0.846466,-0.10758 1.492354,-0.49366 l 0.354529,-0.21192 0.06777,-0.41554 0.06777,-0.41555 0.233472,-0.0888 c 0.128409,-0.0488 0.297743,-0.16621 0.376296,-0.26086 l 0.142825,-0.17209 -0.04854,-0.46338 -0.04854,-0.46339 0.248002,-0.50009 0.248002,-0.50009 -0.143324,-0.20549 -0.143324,-0.2055 0.0049,-0.86841 c 0.0064,-1.13944 -0.136843,-2.77272 -0.264137,-3.01229 l -0.100936,-0.18997 -0.240421,0.004 c -0.132232,0.002 -0.335242,0.0752 -0.451133,0.16283 l -0.210753,0.15933 h -0.508718 -0.508717 l -0.130823,-0.15764 -0.130824,-0.15763 -1.297177,0.0459 -1.297178,0.0459 -0.528928,0.18786 -0.528929,0.18786 -0.17311,-0.14367 -0.173111,-0.14367 v -0.63523 -0.63523 l 0.351813,-0.18193 0.351813,-0.18193 0.617138,0.12747 0.617138,0.12747 0.577903,-0.21965 c 0.685374,-0.2605 1.205443,-0.28177 1.392039,-0.0569 l 0.135134,0.16283 0.3395,-0.004 c 0.186725,-0.002 0.43432,-0.0752 0.550212,-0.16283 0.246136,-0.18617 0.726738,-0.20974 0.892693,-0.0438 l 0.11559,0.11559 3.053844,0.0201 c 1.679615,0.011 3.053963,0.0567 3.054106,0.10151 1.44e-4,0.0448 0.116417,0.0814 0.258383,0.0814 0.141967,0 0.433486,0.0733 0.647821,0.16283 0.214335,0.0896 0.632329,0.16282 0.928875,0.16282 0.296547,0 0.664477,0.0476 0.817621,0.10587 l 0.278445,0.10586 v 0.26433 c 0,0.3205 -0.524301,1.15221 -0.726338,1.15221 -0.07976,0 -0.241012,-0.0599 -0.358339,-0.13322 l -0.213321,-0.13322 -0.33075,0.12484 -0.330749,0.12485 -0.349288,-0.10018 c -0.192108,-0.0551 -0.60008,-0.10017 -0.906606,-0.10017 h -0.557319 l -0.135134,-0.16283 c -0.179126,-0.21583 -0.639566,-0.2071 -0.887,0.0168 l -0.198512,0.17965 -0.203404,-0.18407 -0.203403,-0.18408 -0.74642,0.0733 c -0.87709,0.0861 -0.987987,0.15477 -1.08498,0.67178 l -0.07293,0.38873 0.172613,0.55019 c 0.284009,0.90524 0.362205,1.47799 0.334462,2.44982 l -0.02634,0.92269 -0.209493,0.81413 -0.209494,0.81414 0.04884,0.38805 0.04884,0.38806 -0.814516,0.82248 -0.814515,0.82249 -0.311253,0.0684 c -0.171189,0.0376 -0.529511,0.21315 -0.796272,0.39012 l -0.485019,0.32177 -0.705582,-0.0131 c -0.388071,-0.007 -0.907997,-0.0462 -1.155391,-0.0867 z m -22.997255,-0.86444 -0.434204,-0.066 -0.295829,-0.54276 c -0.369239,-0.67744 -0.370051,-0.67536 0.383575,-0.98197 l 0.62284,-0.2534 0.313014,0.17965 0.313015,0.17964 0.58003,-0.24892 c 1.09532,-0.47007 1.883107,-0.91411 2.219821,-1.25121 0.185445,-0.18566 0.564018,-0.52416 0.841271,-0.75221 0.277254,-0.22805 0.504098,-0.48297 0.504098,-0.56649 v -0.15184 l 0.158037,0.0606 0.158038,0.0606 0.520407,-0.51067 c 0.286225,-0.28086 0.59368,-0.662 0.683235,-0.84696 l 0.162827,-0.3363 0.344799,-0.0701 0.3448,-0.0702 0.27594,-0.31386 c 0.151766,-0.17262 0.277483,-0.42188 0.27937,-0.5539 l 0.0034,-0.24005 0.445342,-0.44091 0.445342,-0.44092 -0.06366,-0.25363 -0.06366,-0.25363 0.215347,-0.19488 c 0.11844,-0.10719 0.215346,-0.28847 0.215346,-0.40285 0,-0.24868 0.909941,-1.55481 1.146398,-1.64555 0.09131,-0.035 0.237086,-0.2338 0.323945,-0.44168 l 0.157926,-0.37797 v -0.76675 -0.76675 l -0.179444,-0.0689 c -0.09869,-0.0379 -0.375557,-0.0165 -0.615249,0.0475 l -0.435805,0.11632 -0.300742,-0.22235 -0.300743,-0.22235 -0.658355,0.009 -0.658356,0.009 -0.605462,-0.26776 -0.605462,-0.26776 -0.669661,0.02 c -0.368313,0.011 -0.81738,0.0783 -0.997926,0.14955 l -0.328267,0.12958 -0.138308,-0.14806 -0.138308,-0.14806 -0.239009,0.12813 c -0.211587,0.11344 -0.858145,0.19996 -1.405934,0.18815 -1.026648,-0.0221 -1.394139,-0.009 -1.784537,0.0629 -0.250133,0.0462 -0.572811,0.0543 -0.717064,0.0181 l -0.262278,-0.0658 -0.279591,-0.42249 -0.279591,-0.42249 0.128245,-0.42064 0.128245,-0.42065 1.085512,0.0227 c 0.597032,0.0125 1.290276,0.0791 1.540544,0.14803 l 0.455033,0.12532 0.521928,-0.1136 c 0.287061,-0.0625 0.745176,-0.13917 1.018034,-0.17042 l 0.496105,-0.0568 0.480856,0.14298 0.480856,0.14297 0.651307,-0.0845 c 0.358219,-0.0465 0.800587,-0.11716 0.983041,-0.15708 l 0.331734,-0.0726 0.1429,0.17218 0.142901,0.17219 h 0.415805 c 0.228693,0 0.543844,0.0583 0.700335,0.12964 l 0.284528,0.12964 0.234546,-0.14648 c 0.295841,-0.18475 0.821834,-0.23702 2.191771,-0.21778 l 1.085512,0.0152 0.149783,0.12413 0.149782,0.12413 -0.08333,0.92484 c -0.04583,0.50866 -0.08881,1.05404 -0.09551,1.21195 -0.0067,0.15792 -0.09227,0.37773 -0.190169,0.48848 -0.269639,0.30504 -0.85324,1.62192 -0.85324,1.92533 0,0.14716 -0.126827,0.4183 -0.281837,0.60252 l -0.281836,0.33494 -0.05937,0.44266 -0.05937,0.44266 -0.248519,0.11323 -0.248519,0.11323 -0.233396,0.54255 -0.233397,0.54254 0.334645,0.30565 c 0.184054,0.16811 0.334644,0.34941 0.334644,0.4029 0,0.0535 0.120332,0.15207 0.267404,0.21908 0.147072,0.067 0.398615,0.33131 0.558983,0.58732 0.325032,0.51888 0.470865,0.6478 0.656238,0.58012 l 0.125735,-0.0459 0.06163,0.24554 0.06163,0.24554 0.301118,0.13451 c 0.786619,0.35137 1.74147,1.12958 2.104847,1.71547 0.118477,0.19103 0.383919,0.45146 0.58987,0.57875 0.205952,0.12728 0.374458,0.30758 0.374458,0.40065 0,0.0931 0.106553,0.38257 0.236785,0.64334 l 0.236786,0.47411 -0.180754,0.37905 c -0.198546,0.41635 -0.306004,0.46192 -0.50992,0.21622 l -0.135134,-0.16283 h -0.371686 -0.371687 l -0.184916,-0.32593 c -0.101703,-0.17927 -0.2693,-0.35318 -0.372437,-0.38647 -0.103137,-0.0333 -0.396225,-0.23528 -0.651307,-0.44884 -0.255083,-0.21357 -0.67139,-0.47756 -0.925129,-0.58664 -0.253738,-0.10908 -0.461343,-0.24427 -0.461343,-0.30042 0,-0.0562 -0.529918,-0.64333 -1.177596,-1.30485 -0.647678,-0.66151 -1.153622,-1.22673 -1.124319,-1.25603 0.0293,-0.0293 -0.0085,-0.12773 -0.08403,-0.21873 l -0.137312,-0.16545 h -0.347715 -0.347716 l -0.263162,0.2817 c -0.14474,0.15493 -0.392867,0.34918 -0.551394,0.43167 -0.406164,0.21135 -0.634507,0.4628 -0.570867,0.62865 l 0.05436,0.14166 -0.411766,0.27191 c -0.226471,0.14955 -0.751461,0.48738 -1.166644,0.75074 -0.984758,0.62465 -1.987253,1.42418 -2.880825,2.29759 l -0.305943,0.29903 -0.168719,-0.0647 -0.168719,-0.0647 -0.614494,0.28133 -0.614493,0.28132 -0.448225,-0.0154 c -0.246523,-0.008 -0.643617,-0.0451 -0.88243,-0.0814 z m 60.32156,-0.26665 c -0.256917,-0.0688 -0.58959,-0.24291 -0.739272,-0.38697 l -0.27215,-0.26194 0.07335,-0.44365 c 0.102221,-0.61827 0.08254,-0.60554 0.95026,-0.61481 1.11504,-0.0119 2.073872,-0.40169 3.15267,-1.28158 0.247638,-0.20198 0.621219,-0.44114 0.83018,-0.53147 1.01503,-0.43879 1.73682,-0.80573 1.73682,-0.88296 0,-0.0813 0.492304,-0.42567 1.64283,-1.14922 0.284806,-0.1791 0.696339,-0.53489 0.914517,-0.79063 l 0.396687,-0.46499 0.213706,0.0678 0.213706,0.0678 0.651042,-0.66121 c 0.358073,-0.36367 0.72014,-0.66122 0.804593,-0.66122 0.08445,0 0.276846,-0.19531 0.42754,-0.43403 0.150693,-0.23871 0.448129,-0.54401 0.660968,-0.67844 l 0.38698,-0.24442 0.263079,-0.5834 c 0.144693,-0.32087 0.263401,-0.71166 0.263794,-0.86841 3.93e-4,-0.15676 0.09733,-0.43156 0.215411,-0.61067 l 0.214696,-0.32565 h 0.462219 0.46222 l 0.245055,0.5264 c 0.13478,0.28952 0.245054,0.67767 0.245054,0.86257 v 0.33618 l -0.283805,0.40953 c -0.156093,0.22524 -0.377916,0.4394 -0.49294,0.47591 l -0.209135,0.0664 -0.06213,0.31065 -0.06213,0.31064 -0.421891,0.2792 c -0.23204,0.15355 -0.421892,0.32581 -0.421892,0.3828 0,0.057 -0.0705,0.0765 -0.156676,0.0435 l -0.156676,-0.0601 -0.3439,0.60935 -0.3439,0.60936 -0.610526,0.45827 c -0.335789,0.25205 -0.808592,0.66588 -1.050673,0.91962 l -0.440148,0.46134 h -0.218135 c -0.119974,0 -0.272641,0.0545 -0.339258,0.12112 -0.06662,0.0666 -0.231392,0.17653 -0.366165,0.24424 -0.134773,0.0677 -0.325678,0.26966 -0.424234,0.44877 l -0.179191,0.32566 -0.349822,0.0344 -0.349821,0.0344 -0.618703,0.58977 -0.618704,0.58978 h -0.282871 c -0.362235,0 -1.007199,0.4322 -1.058627,0.7094 -0.02176,0.11731 -0.09271,0.27864 -0.157652,0.35852 l -0.118082,0.14523 -0.08846,-0.23914 -0.08846,-0.23914 -0.243116,0.17838 c -0.133714,0.0981 -0.390653,0.24624 -0.570974,0.32918 -0.34517,0.15878 -0.644176,0.44806 -0.720643,0.69722 l -0.04559,0.14857 -0.796707,0.0373 -0.796706,0.0373 -0.184511,0.16698 c -0.101482,0.0918 -0.205089,0.16218 -0.23024,0.15632 -0.02515,-0.006 -0.255933,-0.0669 -0.51285,-0.13569 z m 29.862993,-0.87464 0.0215,-0.1188 -0.35279,0.001 -0.35279,0.001 v -0.15107 c 0,-0.0831 -0.10191,-0.31596 -0.22647,-0.5175 l -0.22647,-0.36643 0.0908,-0.66885 0.0908,-0.66885 0.12915,-0.0428 c 0.071,-0.0235 0.32566,0.15972 0.56584,0.40721 l 0.43669,0.44999 0.1126,-0.0696 c 0.0619,-0.0383 0.11261,-0.0179 0.11261,0.0454 v 0.11495 h 0.52105 c 0.28657,0 0.57671,-0.0557 0.64475,-0.12371 l 0.12371,-0.12371 0.3414,0.28727 0.34139,0.28726 0.1265,-0.0728 c 0.0696,-0.04 0.26103,-0.16596 0.42546,-0.27981 0.16443,-0.11386 0.40867,-0.19581 0.54276,-0.18212 0.46866,0.0479 1.07706,-0.14795 1.61988,-0.52134 l 0.54715,-0.37638 0.11847,0.11847 c 0.18818,0.18819 0.46813,0.13905 0.80035,-0.1405 0.16927,-0.14243 0.48678,-0.33377 0.70557,-0.42518 0.2188,-0.0914 0.86582,-0.57218 1.43785,-1.06836 l 1.04003,-0.90215 0.17653,-0.46222 c 0.0971,-0.25423 0.24858,-0.52203 0.33664,-0.59512 0.0881,-0.0731 0.27379,-0.3899 0.41271,-0.70404 0.13892,-0.31413 0.39922,-0.78426 0.57843,-1.04474 l 0.32584,-0.47359 0.21543,-0.84095 c 0.11849,-0.46252 0.28781,-0.92246 0.37627,-1.02208 0.21728,-0.24467 0.50812,-0.96644 0.50812,-1.26097 0,-0.13156 0.12277,-0.35453 0.27282,-0.4955 l 0.27282,-0.2563 0.23133,-0.76672 c 0.12723,-0.42169 0.24025,-0.91326 0.25116,-1.09237 0.0109,-0.17911 0.0747,-0.52105 0.14167,-0.75986 0.067,-0.23881 0.18536,-0.67237 0.26301,-0.96346 0.0777,-0.29109 0.19783,-0.55108 0.26707,-0.57775 0.14062,-0.0542 0.74918,0.22972 1.04104,0.48561 l 0.18996,0.16656 v 0.63677 c 0,0.35023 -0.0965,0.9899 -0.21452,1.42148 -0.11798,0.43159 -0.24009,0.91528 -0.27134,1.07486 -0.0313,0.15958 -0.19038,0.44887 -0.35361,0.64285 l -0.29678,0.3527 0.14388,0.048 0.14387,0.048 -0.40208,0.41178 -0.40209,0.41177 -0.0565,0.50104 c -0.0311,0.27557 -0.0988,0.52723 -0.15063,0.55923 -0.0518,0.032 -0.0941,0.22029 -0.0941,0.41842 v 0.36023 l -0.16283,0.13514 -0.16283,0.13513 v 0.36302 0.36302 l -0.37992,0.37993 c -0.20897,0.20896 -0.37993,0.45725 -0.37993,0.55176 0,0.264 -0.29921,0.78451 -0.88441,1.53856 -0.29282,0.3773 -0.56296,0.83884 -0.60032,1.02564 l -0.0679,0.33964 -0.29578,0.16976 c -0.35362,0.20295 -0.86534,1.01095 -0.86534,1.36636 0,0.13952 -0.0733,0.31448 -0.16283,0.3888 l -0.16283,0.13514 v -0.17612 c 0,-0.23138 -0.0355,-0.22497 -0.54891,0.0991 -0.23983,0.15139 -0.40847,0.31989 -0.37476,0.37444 l 0.0613,0.0992 -0.41009,0.0632 c -0.22554,0.0348 -0.5322,0.10077 -0.68146,0.14665 l -0.27138,0.0834 0.0161,0.19069 0.0161,0.1907 -0.32191,-0.0707 -0.32192,-0.0707 -0.18268,0.16179 -0.18267,0.16179 -0.45496,-0.0139 -0.45496,-0.0139 -0.33723,0.24933 c -0.18547,0.13712 -0.4448,0.23656 -0.57627,0.22096 -0.13148,-0.0156 -0.52785,0.0812 -0.88082,0.21507 l -0.64178,0.24344 -0.0638,-0.1 c -0.0351,-0.055 -0.22585,-0.13514 -0.42389,-0.17811 l -0.36008,-0.0781 -0.1853,0.16769 -0.1853,0.1677 -0.8873,-0.0115 -0.88729,-0.0115 z m -51.090968,-5.6336 c -0.350471,-0.33054 -0.43711,-0.51197 -0.528545,-1.10683 l -0.03337,-0.2171 0.289865,-0.24492 0.289865,-0.24493 0.174322,0.0669 0.174321,0.0669 0.262431,-0.17195 0.262431,-0.17195 0.03581,0.10743 0.03581,0.10742 0.509238,-0.0951 0.509237,-0.0951 0.04949,0.12897 0.04949,0.12896 1.524041,0.0203 1.52404,0.0204 0.114835,-0.19155 0.114834,-0.19156 0.113946,0.18997 0.113945,0.18996 h 0.350879 c 0.192983,0 0.603508,-0.0655 0.912278,-0.14563 l 0.5614,-0.14562 0.05588,0.14562 c 0.07417,0.19327 0.511222,0.18552 0.774669,-0.0138 0.256978,-0.19436 0.557249,-0.21218 0.6158,-0.0365 l 0.04325,0.12975 0.791211,-0.14929 0.791211,-0.14929 0.34151,0.15088 c 0.187831,0.083 0.634599,0.15383 0.992818,0.15742 0.358219,0.004 0.822275,0.0629 1.031237,0.13171 0.208961,0.0688 0.721865,0.11959 1.139787,0.11276 l 0.759859,-0.0124 -0.0067,0.10216 c -0.01299,0.19755 -0.481017,1.1062 -0.636062,1.23487 l -0.156826,0.13015 -0.251505,-0.16237 c -0.252165,-0.16281 -0.712217,-0.20964 -1.825497,-0.18583 -0.328368,0.007 -2.111322,0.0301 -3.96212,0.0513 l -3.365088,0.0386 -0.434205,0.12128 c -0.238812,0.0667 -0.909949,0.12156 -1.491414,0.12189 l -1.05721,6.1e-4 -0.571059,0.21705 c -0.314082,0.11937 -0.579792,0.21707 -0.590467,0.2171 -0.01067,3e-5 -0.190517,-0.16132 -0.399649,-0.35856 z m 21.263764,-2.63804 -0.580054,-0.60852 -0.06632,-0.35354 c -0.03648,-0.19444 -0.161225,-0.43942 -0.277216,-0.54439 -0.115991,-0.10497 -0.264085,-0.35203 -0.329099,-0.54902 l -0.118205,-0.35816 -0.375,-0.28603 -0.375,-0.28603 -0.120008,0.0742 -0.120008,0.0742 0.07846,-0.57045 0.07846,-0.57045 -0.242934,-0.51867 -0.242934,-0.51868 0.07594,-0.70913 c 0.08587,-0.80187 0.15198,-0.88554 0.781681,-0.98934 l 0.450203,-0.0742 0.06993,0.11315 c 0.03846,0.0622 -0.0083,0.2326 -0.104014,0.37861 l -0.173941,0.26547 0.07074,0.37709 c 0.03891,0.2074 0.286417,0.66329 0.550019,1.01308 0.263602,0.34979 0.529908,0.81989 0.59179,1.04468 0.217017,0.78829 0.894435,1.76092 1.156432,1.66038 l 0.140899,-0.0541 v 0.25333 c 0,0.13933 0.0977,0.37753 0.217103,0.52933 l 0.217102,0.276 v 0.4837 0.48369 l -0.28618,0.28618 c -0.38283,0.38283 -0.400837,0.3774 -1.067838,-0.32234 z M 113.807,136.9267 c 0,-0.0518 -0.10491,-0.2416 -0.23314,-0.42168 l -0.23314,-0.32741 -0.42216,0.0566 -0.42215,0.0566 -0.22987,-0.31092 -0.22987,-0.31091 -0.33604,-0.0699 c -0.18482,-0.0385 -0.54979,-0.18724 -0.81104,-0.3306 -0.26126,-0.14336 -0.60882,-0.26066 -0.77236,-0.26066 -0.16354,0 -0.42558,-0.10087 -0.58231,-0.22415 -0.15674,-0.12329 -0.33429,-0.19368 -0.39457,-0.15642 l -0.1096,0.0677 v -0.20669 c 0,-0.24217 -0.3739,-0.61607 -0.52358,-0.52357 -0.0567,0.035 -0.13003,-0.0395 -0.16301,-0.16562 l -0.06,-0.22932 -0.27239,0.0684 -0.27239,0.0684 -0.34451,-0.4287 -0.34451,-0.4287 -0.57714,-0.0721 -0.57714,-0.0721 -0.28525,-0.41162 -0.28526,-0.41162 0.0343,-0.41481 0.0343,-0.41482 0.54276,-0.003 c 0.29851,-0.002 0.77531,0.0823 1.05954,0.1868 0.28423,0.10448 0.60718,0.18997 0.71767,0.18997 h 0.20088 l -0.0498,0.26027 -0.0498,0.26028 0.74325,0.4336 c 0.74663,0.43558 0.86491,0.50027 1.82788,0.99977 l 0.52319,0.27138 0.0479,-0.14014 0.0479,-0.14014 0.4706,0.38562 c 0.25883,0.2121 0.63266,0.41367 0.83074,0.44794 0.64052,0.11083 1.54917,0.50411 1.74599,0.7557 l 0.19178,0.24514 0.54104,0.0744 c 0.29757,0.0409 0.51632,0.11441 0.48611,0.1633 -0.0302,0.0489 0.0732,0.1822 0.22972,0.29625 l 0.28465,0.20736 -0.17157,0.31772 c -0.0944,0.17474 -0.21961,0.38966 -0.27832,0.47759 l -0.10674,0.15988 -0.71136,0.0597 -0.71137,0.0597 z m -30.719993,-1.43039 c -0.140221,-0.14926 -0.358782,-0.27138 -0.485693,-0.27138 -0.283395,0 -0.491268,-0.19436 -0.491268,-0.45932 0,-0.10934 -0.07109,-0.22608 -0.157967,-0.25942 -0.08688,-0.0333 -0.300725,-0.31268 -0.475207,-0.62076 -0.330649,-0.58382 -0.617342,-0.89313 -1.013335,-1.09327 l -0.233848,-0.11819 -0.188141,-0.5556 c -0.103477,-0.30558 -0.245895,-0.66351 -0.316485,-0.79541 l -0.128345,-0.23982 -0.154502,0.0593 -0.154502,0.0593 0.0027,-0.13228 c 0.0015,-0.0727 0.172923,-0.36431 0.380984,-0.6479 l 0.378293,-0.51562 h 0.260161 0.260161 l -0.05895,0.22545 -0.05896,0.22544 0.484238,0.50728 c 0.457252,0.479 0.673432,0.77339 1.061944,1.44609 0.355365,0.6153 0.770536,1.17793 0.869213,1.17793 0.05688,0 0.268344,0.14481 0.469927,0.32181 0.201583,0.17699 0.496371,0.37117 0.655084,0.43152 l 0.28857,0.10971 v 0.42209 0.42209 l -0.28618,0.28618 c -0.357478,0.35748 -0.58251,0.36114 -0.907883,0.0148 z m -35.098502,-1.3708 c -0.109607,-0.0637 -0.500392,-0.1243 -0.86841,-0.13461 l -0.669125,-0.0188 -0.48848,-0.22933 -0.488481,-0.22933 -0.672086,-0.011 c -0.369648,-0.006 -0.882553,-0.0843 -1.139788,-0.17394 -0.539752,-0.188 -1.043181,-0.21016 -1.430362,-0.063 l -0.271211,0.10311 -0.04352,-0.13025 -0.04352,-0.13025 h -0.900613 -0.900606 l -0.217031,-0.28907 -0.217032,-0.28906 0.06421,-0.25585 c 0.03532,-0.14072 0.169273,-0.36862 0.297678,-0.50645 l 0.233464,-0.25059 0.557734,0.0806 c 0.306753,0.0443 1.217182,0.0878 2.023174,0.0965 0.805993,0.009 1.587562,0.0638 1.73682,0.12233 0.149258,0.0585 0.564466,0.0943 0.922685,0.0795 0.779214,-0.0322 1.604176,0.12919 2.095816,0.41001 l 0.358996,0.20507 h 0.425213 0.425212 l 0.168402,0.32565 0.168402,0.32565 -0.177333,0.35279 c -0.296961,0.59078 -0.623262,0.80035 -0.950212,0.61026 z m 70.123795,-8.2894 -0.19958,-0.1474 -0.51719,0.0216 -0.5172,0.0216 -0.1211,-0.45277 c -0.14683,-0.54898 -0.3792,-0.80073 -0.73909,-0.80073 h -0.27003 l 0.0677,-0.10956 0.0677,-0.10957 -0.35236,-0.18895 c -0.1938,-0.10392 -0.46974,-0.31042 -0.6132,-0.45889 -0.14345,-0.14847 -0.3422,-0.27059 -0.44166,-0.27138 -0.0995,-7.9e-4 -0.18167,-0.0776 -0.18269,-0.17074 -0.001,-0.0931 -0.18259,-0.35541 -0.4035,-0.58288 l -0.40165,-0.41357 -0.15644,0.06 -0.15644,0.06 -0.063,-0.25083 c -0.0346,-0.13796 -0.19786,-0.33895 -0.36275,-0.44666 -0.51399,-0.33574 -1.87317,-1.72795 -2.06798,-2.11823 l -0.18573,-0.37208 -0.38926,-0.21711 c -0.68908,-0.38432 -1.33888,-0.83161 -1.68786,-1.16182 l -0.3403,-0.32199 -0.25571,0.0363 -0.25572,0.0363 -0.14571,0.30494 c -0.0801,0.16772 -0.25465,0.35459 -0.38781,0.41526 -0.13315,0.0607 -0.3308,0.27501 -0.43921,0.47633 l -0.19712,0.36602 -0.33878,0.15573 c -0.18632,0.0857 -0.52195,0.21413 -0.74584,0.28552 l -0.40707,0.12978 v 0.19186 c 0,0.22349 -0.32776,0.55116 -0.5513,0.55117 -0.0849,0 -0.29079,0.17109 -0.45763,0.38019 -0.3027,0.37936 -1.00632,0.81387 -1.31796,0.81387 -0.0905,0 -0.31907,0.16984 -0.50797,0.37743 -0.1889,0.20758 -0.43183,0.40547 -0.53984,0.43975 -0.10801,0.0343 -0.22567,0.15462 -0.26147,0.2674 l -0.0651,0.20507 -0.72746,0.34841 c -0.40011,0.19162 -0.840051,0.48652 -0.977658,0.65534 -0.330227,0.40512 -1.138351,0.75271 -1.811329,0.77908 l -0.541806,0.0212 -0.06835,-0.62728 -0.06835,-0.62728 -0.178877,-0.19765 -0.178876,-0.19766 0.159431,-0.3073 0.159431,-0.30731 -0.177496,-0.30047 -0.177496,-0.30048 0.197899,-0.36748 0.197899,-0.36747 -0.05733,-0.37084 -0.05733,-0.37083 0.232323,-0.25913 0.232323,-0.25913 -0.135689,-0.0484 c -0.179516,-0.0641 -0.174455,-0.24744 0.0068,-0.24744 0.169947,0 0.725892,-0.55794 0.725892,-0.7285 v -0.11959 l 0.207808,0.0543 0.207808,0.0543 0.121665,-0.22733 c 0.06692,-0.12503 0.175475,-0.22733 0.241244,-0.22733 0.233581,0 2.605034,-1.22445 2.662754,-1.37486 0.0323,-0.0841 0.22035,-0.22049 0.41793,-0.30305 l 0.35924,-0.1501 0.0347,-0.35496 0.0347,-0.35497 0.3923,-0.22361 c 0.21577,-0.12299 0.63757,-0.3831 0.93733,-0.57802 l 0.54502,-0.35442 0.1324,-0.31964 0.1324,-0.31964 0.69825,-0.51264 c 0.6078,-0.44623 0.97528,-0.84697 1.66739,-1.81828 0.0897,-0.12585 0.34613,-0.40711 0.5699,-0.62503 0.22376,-0.21791 0.40684,-0.46839 0.40684,-0.5566 0,-0.0882 0.0796,-0.22649 0.17698,-0.30727 0.0973,-0.0808 0.33502,-0.48976 0.52819,-0.90884 0.19317,-0.41908 0.60201,-1.10285 0.90854,-1.51949 0.30653,-0.41665 0.55732,-0.82801 0.55732,-0.91414 0,-0.0861 0.0792,-0.24412 0.17599,-0.35107 l 0.17599,-0.19447 -0.0647,-0.1685 c -0.091,-0.23718 -0.44788,-0.33004 -1.26428,-0.32899 -0.38807,5.1e-4 -0.74594,-0.0479 -0.79526,-0.10763 l -0.0897,-0.10855 -0.0541,0.13288 -0.0541,0.13287 -0.26537,-0.17387 -0.26537,-0.17388 -0.40497,0.0813 c -0.98247,0.19722 -2.62052,0.20444 -4.31281,0.019 -0.77614,-0.085 -1.42338,-0.12396 -1.43831,-0.0865 -0.0651,0.16357 -3.022425,-0.0742 -3.419356,-0.27493 l -0.298453,-0.15094 v -0.49282 c 0,-0.27106 0.0566,-0.59859 0.125783,-0.72786 l 0.125783,-0.23503 0.02216,-1.00425 0.02216,-1.00426 0.12869,-0.15506 c 0.07078,-0.0853 0.157089,-0.33006 0.191799,-0.54396 l 0.06311,-0.3889 0.277113,-0.27711 0.277114,-0.277115 5.189197,0.03614 5.18919,0.03621 0.13171,0.13171 0.1317,0.1317 h 0.51764 0.51764 l -0.0625,-0.16282 -0.0625,-0.162935 h 0.27658 c 0.15212,0 0.30986,0.05383 0.35052,0.119735 0.0407,0.0658 0.23894,0.18857 0.44061,0.27283 l 0.36668,0.15321 0.39319,-0.16428 c 0.48453,-0.20246 1.06004,-0.21236 1.21888,-0.021 l 0.11893,0.1433 1.63986,-0.012 1.63985,-0.012 0.31698,0.19276 0.31697,0.19277 0.0171,0.40866 c 0.009,0.22477 0.003,0.48194 -0.0132,0.57149 -0.0167,0.0896 -0.0386,0.3338 -0.0487,0.54276 -0.0165,0.34227 -0.19735,1.01345 -0.67874,2.51921 -0.0899,0.28106 -0.13539,0.5563 -0.10119,0.61164 0.0342,0.0553 -0.003,0.28788 -0.0819,0.51677 l -0.14408,0.41617 -0.31592,0.1751 c -0.17376,0.0963 -0.31592,0.24439 -0.31592,0.32909 0,0.0847 -0.059,0.21647 -0.13108,0.29282 -0.0721,0.0764 -0.10697,0.20166 -0.0775,0.27845 0.0525,0.13685 -0.22746,0.48186 -0.69558,0.85714 l -0.23563,0.1889 v 0.33283 0.33284 l -0.31989,0.2924 c -0.17593,0.16082 -0.4229,0.51221 -0.54882,0.78087 -0.12591,0.26867 -0.34654,0.68388 -0.49028,0.92269 -0.14374,0.23881 -0.32419,0.56145 -0.401,0.71698 -0.0768,0.15553 -0.29841,0.41632 -0.49245,0.57954 l -0.35279,0.29677 0.001,0.56025 10e-4,0.56024 0.80992,0.70558 c 0.44546,0.38807 0.8393,0.79197 0.87521,0.89755 0.0879,0.2584 1.578,1.11933 2.22389,1.28486 l 0.51875,0.13296 -0.12534,0.2007 -0.12534,0.2007 0.32556,0.2648 c 0.17906,0.14566 0.58097,0.34673 0.89313,0.44684 0.31216,0.10012 0.53999,0.22665 0.50627,0.28121 -0.0337,0.0545 -0.008,0.16394 0.0582,0.24309 0.0657,0.0791 0.23256,0.35787 0.37083,0.61941 l 0.2514,0.47548 0.45596,0.16853 c 0.25078,0.0927 0.42309,0.20145 0.3829,0.24162 -0.11333,0.11332 0.19168,0.42078 0.3552,0.35801 0.08,-0.0307 0.14543,-0.01 0.14543,0.0466 0,0.0563 0.14082,0.17517 0.31294,0.26418 l 0.31293,0.16183 0.0709,0.28231 0.0709,0.28232 0.38559,0.16111 0.38559,0.1611 -0.0584,0.15225 -0.0584,0.15224 0.27925,0.20342 0.27924,0.20341 -0.28022,0.4439 c -0.34854,0.55214 -0.44399,0.61116 -1.0051,0.62171 -0.24799,0.005 -0.53365,0.0772 -0.63481,0.16111 l -0.18392,0.15265 0.0517,0.19755 0.0517,0.19755 h -0.35981 -0.3598 l -0.37875,0.68904 c -0.20831,0.37897 -0.39597,0.76648 -0.41703,0.86112 l -0.0383,0.17208 z m -75.51496,-1.19509 -0.103239,-0.27154 -0.598244,-0.28325 -0.598244,-0.28326 -0.219568,-0.35527 -0.219568,-0.35526 -0.471775,-0.1188 -0.471775,-0.11879 -0.57866,-0.5519 -0.57866,-0.5519 -0.314765,-0.063 -0.314766,-0.063 -0.111664,-0.24508 c -0.06142,-0.13479 -0.30441,-0.33199 -0.539989,-0.43822 -0.235578,-0.10623 -0.475103,-0.28055 -0.532276,-0.38738 -0.05717,-0.10683 -0.335082,-0.32768 -0.617574,-0.49077 -0.282492,-0.16309 -0.879982,-0.62302 -1.327756,-1.02206 -0.447774,-0.39904 -1.156071,-0.90394 -1.573993,-1.122 -0.417922,-0.21806 -0.925838,-0.51681 -1.128703,-0.66389 -0.500197,-0.36265 -1.205148,-0.30544 -1.205148,0.0978 0,0.0773 -0.0957,0.13661 -0.212658,0.13187 -0.116962,-0.005 -0.211363,0.0348 -0.20978,0.0879 0.0016,0.0531 -0.151872,0.17148 -0.341011,0.26309 -0.189139,0.0916 -0.39707,0.28327 -0.462068,0.42592 -0.137725,0.30227 -1.561989,1.41691 -2.257702,1.7669 -0.263395,0.1325 -0.552173,0.30193 -0.641727,0.37651 -0.08956,0.0746 -0.308537,0.17037 -0.486626,0.21287 -0.178089,0.0425 -0.579306,0.29555 -0.891592,0.56235 -0.312287,0.26679 -0.890272,0.6313 -1.284413,0.81001 -0.394141,0.17871 -0.921037,0.51218 -1.170881,0.74104 -0.551948,0.50559 -1.475884,0.98647 -1.895347,0.98647 -0.169683,0 -0.403335,0.0717 -0.519227,0.15943 l -0.210712,0.15942 -0.501045,-0.0629 -0.501044,-0.0629 -0.275164,0.18029 c -0.15134,0.0992 -0.524259,0.27134 -0.828708,0.38262 l -0.553543,0.20233 v -0.26202 c 0,-0.14411 -0.08548,-0.34837 -0.189964,-0.45392 l -0.189965,-0.1919 v -0.33378 c 0,-0.18358 0.06706,-0.41476 0.14903,-0.51374 0.206463,-0.24931 0.276848,-1.02735 0.138324,-1.52904 l -0.115583,-0.41861 0.12314,-0.22875 c 0.06773,-0.12581 0.112333,-0.41618 0.09912,-0.64528 l -0.02402,-0.41654 0.111264,0.0688 c 0.148191,0.0916 0.549954,-0.12993 0.549954,-0.30322 v -0.13721 l 0.386601,0.0451 0.3866,0.0451 0.264707,-0.24868 c 0.145589,-0.13678 0.264707,-0.30666 0.264707,-0.37753 v -0.12885 l 0.27006,0.0516 0.27006,0.0516 0.385024,-0.33806 0.385025,-0.33806 h 0.272784 0.272784 l 0.239057,-0.25011 c 0.131482,-0.13757 0.393379,-0.35755 0.581994,-0.48886 l 0.342937,-0.23874 0.1735,0.0666 0.1735,0.0666 0.460524,-0.48433 0.460524,-0.48433 0.514247,-0.18736 0.514246,-0.18736 0.215658,-0.30286 c 0.118612,-0.16657 0.361602,-0.36331 0.539978,-0.4372 0.178376,-0.0739 0.454244,-0.30468 0.613041,-0.51287 0.158797,-0.20819 0.478087,-0.45949 0.709533,-0.55844 l 0.420811,-0.17992 0.352992,-0.53902 c 0.194146,-0.29647 0.515231,-0.6481 0.713523,-0.7814 0.198293,-0.1333 0.503899,-0.44028 0.679126,-0.68217 0.175227,-0.24189 0.360382,-0.43981 0.411455,-0.43981 0.142687,0 2.076802,-1.89677 2.076802,-2.03671 0,-0.0678 0.183181,-0.25729 0.407067,-0.42111 0.223887,-0.16381 0.469535,-0.37295 0.545885,-0.46475 l 0.138817,-0.16691 -0.06609,-0.3009 -0.06609,-0.3009 0.2344,-0.37927 0.2344,-0.37927 0.0532,-0.81192 0.0532,-0.81193 -0.273977,-0.27397 -0.273977,-0.27398 h -0.270919 -0.270918 l -0.107676,0.18996 -0.107675,0.18997 -0.150466,-0.20359 -0.150467,-0.20359 -0.579546,0.16988 -0.579546,0.16989 -0.223096,-0.15626 c -0.122702,-0.0859 -0.384728,-0.15626 -0.582278,-0.15626 H 29.45589 l -0.05849,0.15243 -0.05849,0.15243 -0.262845,-0.13636 -0.262844,-0.13637 -0.570802,0.0948 c -0.313942,0.0522 -0.725749,0.0678 -0.915129,0.0349 l -0.344327,-0.06 -0.06915,0.11189 c -0.101253,0.16383 -0.443552,0.13646 -0.596378,-0.0477 l -0.132422,-0.15956 -0.830692,0.0463 c -0.456881,0.0255 -1.18857,0.0786 -1.625976,0.118 l -0.795284,0.0717 -0.05604,0.14603 -0.05604,0.14603 -0.257423,-0.16867 -0.257423,-0.16867 -0.749991,0.0346 -0.749991,0.0346 -0.170038,-0.14112 c -0.09352,-0.0776 -0.307323,-0.12538 -0.475117,-0.10614 l -0.30508,0.035 -0.119992,-0.15332 -0.119992,-0.15333 -0.190839,0.0732 -0.19084,0.0732 0.05643,0.21578 c 0.06823,0.26092 -0.05911,0.27402 -0.412556,0.0424 -0.145513,-0.0953 -0.444959,-0.19012 -0.665436,-0.21061 l -0.400867,-0.0373 -0.302315,0.15634 c -0.375112,0.19397 -0.542434,0.19642 -0.795188,0.0116 l -0.197933,-0.14474 0.165311,-0.26233 0.165312,-0.26233 0.03086,-0.75986 c 0.04929,-1.21348 0.03048,-2.1171 -0.0604,-2.90152 l -0.08463,-0.730492 0.178835,-0.06863 c 0.258149,-0.09906 1.347896,-0.09595 1.883889,0.0054 l 0.459367,0.08684 0.05747,-0.149717 0.05747,-0.149717 4.802174,0.01288 4.802173,0.01287 0.976961,-0.10717 c 1.171461,-0.128505 3.188955,-0.121915 3.544255,0.01158 l 0.255038,0.09582 0.738595,-0.107221 0.738596,-0.107221 0.600816,0.229919 c 0.330449,0.126456 0.755226,0.230499 0.943948,0.231208 0.188723,7.09e-4 0.611797,0.0734 0.940164,0.161538 0.328368,0.08814 0.798655,0.160833 1.045083,0.161543 l 0.448051,0.001 0.142338,0.1715 0.142337,0.17151 -0.0048,0.67484 c -0.0026,0.37117 -0.05641,0.84353 -0.119492,1.0497 -0.06308,0.20617 -0.14352,0.69236 -0.17875,1.08043 l -0.06405,0.70558 0.106559,0.37148 0.106558,0.37148 -0.115323,0.13896 c -0.06343,0.0764 -0.129415,0.26733 -0.146639,0.42423 -0.01722,0.1569 -0.139889,0.43213 -0.27259,0.61162 l -0.241274,0.32634 0.05631,0.21533 0.05631,0.21534 -0.197016,0.34515 c -0.108359,0.18984 -0.258332,0.54055 -0.333274,0.77936 -0.07494,0.23882 -0.22685,0.55071 -0.337574,0.69309 -0.110724,0.14238 -0.201316,0.34985 -0.201316,0.46103 0,0.11118 -0.170968,0.39139 -0.379929,0.62269 l -0.37993,0.42053 v 0.28162 0.28162 l -0.334269,0.34195 -0.33427,0.34195 0.06235,0.24843 0.06235,0.24842 -0.603825,0.55186 -0.603825,0.55186 0.03447,0.29981 0.03447,0.29981 0.134438,-0.0267 0.134439,-0.0267 -0.0163,0.24382 c -0.02285,0.3418 0.381264,0.96877 0.773919,1.20072 0.181716,0.10734 0.330392,0.23891 0.330392,0.29237 0,0.0535 0.207604,0.24038 0.461342,0.41538 0.253739,0.17501 0.94891,0.71924 1.544826,1.20941 l 1.083482,0.89122 0.327683,-0.0495 c 0.373925,-0.0565 0.865173,0.12622 0.881295,0.32775 0.006,0.0746 0.01818,0.18049 0.02714,0.23526 0.01886,0.11534 0.812073,0.42106 1.210346,0.4665 l 0.271378,0.031 v 0.22669 c 0,0.26486 0.238435,0.58744 0.434205,0.58744 0.07493,0 0.203285,0.0812 0.285224,0.18047 0.08194,0.0993 0.345755,0.26772 0.586257,0.37436 0.240502,0.10665 0.717972,0.48613 1.061045,0.8433 l 0.623768,0.64939 0.592971,0.0741 0.59297,0.0741 -0.232739,0.34046 c -0.392967,0.57484 -0.992528,1.15459 -1.194052,1.15459 -0.105297,0 -0.43895,0.21982 -0.741451,0.48848 -0.302502,0.26867 -0.59629,0.48848 -0.652863,0.48848 -0.05657,0 -0.132694,0.11887 -0.169158,0.26415 l -0.0663,0.26416 -0.135482,-0.052 c -0.07451,-0.0286 -0.198136,0.0235 -0.274715,0.11577 -0.197303,0.23774 -0.319526,0.2088 -0.438367,-0.10377 z m 30.63886,-0.68551 c -0.193917,-0.10345 -0.428119,-0.29594 -0.520449,-0.42776 -0.09233,-0.13182 -0.397728,-0.39519 -0.678661,-0.58527 -0.561773,-0.38009 -3.461462,-3.26849 -3.938981,-3.92364 -0.165117,-0.22654 -0.627285,-0.65333 -1.027039,-0.94842 -0.399755,-0.2951 -1.036231,-0.89916 -1.414393,-1.34236 -0.745466,-0.87368 -1.075408,-1.1509 -1.369778,-1.1509 h -0.189542 l 0.05982,-0.1559 0.05982,-0.15589 -0.819543,-0.83295 c -0.450744,-0.45812 -0.849334,-0.92682 -0.885749,-1.04155 -0.03642,-0.11474 -0.280196,-0.3092 -0.541734,-0.43214 l -0.475523,-0.22352 -0.279889,-0.47759 -0.279889,-0.4776 -0.260207,-0.0653 -0.260208,-0.0653 0.05547,-0.14455 0.05547,-0.14454 -0.227224,-0.12161 c -0.124978,-0.0669 -0.472333,-0.33929 -0.771905,-0.60535 -0.299572,-0.26607 -0.619201,-0.48375 -0.710287,-0.48375 H 58.65017 l 0.07103,-0.11493 c 0.155976,-0.25237 -0.917058,-1.43314 -1.659345,-1.82594 l -0.24424,-0.12924 -0.244241,0.12299 c -0.134332,0.0677 -0.415208,0.28952 -0.624169,0.49306 -0.683745,0.666 -1.240908,1.09905 -1.679595,1.30544 -0.237191,0.11159 -0.483537,0.30799 -0.547435,0.43644 -0.115797,0.23278 -0.650094,0.69933 -1.56671,1.36805 -0.588136,0.42908 -1.264578,1.12085 -1.471387,1.50474 l -0.153,0.284 -0.309839,0.062 -0.309839,0.062 -0.117215,0.25726 -0.117215,0.25726 -0.452237,-0.0114 -0.452238,-0.0113 -0.129524,-0.22734 c -0.07124,-0.12504 -0.288137,-0.44883 -0.481996,-0.71953 l -0.352472,-0.49219 0.0589,-0.15348 c 0.06097,-0.15888 -0.134522,-0.36862 -0.525637,-0.56395 l -0.225845,-0.11279 -0.09126,-0.3525 -0.09126,-0.35249 -0.539729,-0.27351 c -0.571418,-0.28955 -0.650117,-0.41438 -0.362673,-0.57524 l 0.177061,-0.0991 -0.250136,-0.33833 -0.250136,-0.33832 0.208764,-0.23084 c 0.114821,-0.12696 0.404157,-0.33038 0.64297,-0.45205 0.511284,-0.26049 1.175755,-0.74127 1.237594,-0.89547 0.08413,-0.20979 1.371857,-1.36778 1.747564,-1.57151 0.208961,-0.11331 0.62417,-0.50829 0.922685,-0.87774 0.298516,-0.36946 0.747079,-0.80029 0.996806,-0.9574 0.249728,-0.15711 0.606145,-0.49562 0.792037,-0.75224 l 0.337987,-0.46658 0.456302,-0.19813 0.456303,-0.19814 1.101285,-1.15273 1.101285,-1.15274 h 0.342202 0.342201 l 0.251505,-0.27143 c 0.253317,-0.27333 0.543898,-0.352 0.652306,-0.17659 0.03222,0.0521 0.329437,0.2273 0.660484,0.38927 0.814502,0.3985 1.187023,0.73203 1.538137,1.37714 l 0.296085,0.544 0.296513,0.15334 c 0.163081,0.0843 0.55362,0.44542 0.867865,0.80242 0.314244,0.357 0.713757,0.69873 0.887808,0.75941 l 0.316455,0.11031 -0.0683,0.178 c -0.03757,0.0979 -0.01172,0.24617 0.05745,0.32951 l 0.12575,0.15152 0.202311,-0.0642 0.202312,-0.0642 0.07322,0.19745 c 0.117573,0.31703 1.202715,1.47315 1.691774,1.80243 0.246998,0.1663 0.530802,0.42693 0.630676,0.57918 0.09987,0.15225 0.332903,0.36883 0.517844,0.4813 l 0.336256,0.20449 0.160772,0.38478 c 0.08842,0.21163 0.23601,0.41366 0.327967,0.44895 0.09196,0.0353 0.274994,0.25596 0.406749,0.49038 l 0.239554,0.42623 0.24329,0.0611 c 0.13381,0.0336 0.289704,0.0324 0.346431,-0.003 0.05673,-0.0351 0.131726,0.0502 0.166663,0.18935 l 0.06352,0.25309 0.44784,0.20194 0.44784,0.20195 0.234395,0.4937 0.234395,0.49371 0.32805,0.16316 c 0.180428,0.0897 0.480762,0.27906 0.66741,0.42073 l 0.339359,0.25757 0.07031,0.3748 0.07031,0.37479 0.454886,0.20652 c 0.250187,0.11359 0.525485,0.2076 0.611773,0.20891 0.230082,0.003 0.765798,0.55331 0.765798,0.78595 0,0.11011 0.07621,0.22945 0.169355,0.26519 0.09315,0.0357 0.245745,0.25591 0.339109,0.48925 l 0.169754,0.42425 0.30898,0.15978 c 0.16994,0.0879 0.360996,0.25697 0.42457,0.37576 0.06357,0.11879 0.208954,0.21598 0.323069,0.21598 h 0.20748 l 0.378276,0.56989 c 0.208052,0.31345 0.655411,0.80916 0.994132,1.10159 1.039473,0.89741 1.223122,1.38097 0.783084,2.06192 -0.134332,0.20788 -0.36636,0.58402 -0.515618,0.83588 -0.732203,1.2355 -1.160764,1.83332 -1.721469,2.40136 -0.682733,0.69165 -0.688837,0.69388 -1.18206,0.43076 z m 16.17326,-10.40246 -0.623514,-0.13053 -0.651308,0.0903 c -0.358219,0.0497 -1.237484,0.0673 -1.953922,0.0392 -2.050215,-0.0804 -2.645562,-0.0893 -3.690741,-0.0546 -0.537329,0.0178 -1.260245,-0.002 -1.606482,-0.0452 l -0.629521,-0.0776 -0.157475,-0.30452 c -0.08661,-0.16749 -0.157476,-0.50235 -0.157476,-0.74412 0,-0.24178 -0.04631,-0.4396 -0.102904,-0.4396 h -0.102905 l 0.117358,-0.35279 c 0.06455,-0.19404 0.218428,-0.43373 0.341959,-0.53264 l 0.224601,-0.17986 0.007,-0.30863 0.007,-0.30862 0.215321,0.0238 c 0.118426,0.0131 0.360409,-0.0248 0.53774,-0.0841 l 0.322419,-0.10786 0.6229,0.0705 0.6229,0.0705 -0.02263,0.12218 -0.02263,0.12217 0.922686,0.028 c 0.507477,0.0154 1.065056,0.0342 1.239064,0.0418 l 0.316379,0.0139 0.127031,-0.17372 0.127031,-0.17373 0.10419,0.10419 c 0.0573,0.0573 0.414086,0.12697 0.792848,0.15481 l 0.688659,0.0506 0.196768,-0.1053 0.196767,-0.10531 0.485455,0.12984 0.485455,0.12984 0.700211,-0.12902 0.700212,-0.12902 0.420742,0.17755 0.420741,0.17756 0.635477,-0.1297 0.635477,-0.12969 0.178657,0.15523 0.178658,0.15524 1.194063,0.0864 c 0.656735,0.0475 1.330614,0.0852 1.49751,0.0838 l 0.303446,-0.003 0.320723,0.2996 c 0.420277,0.3926 0.405671,0.53535 -0.116506,1.13868 l -0.43723,0.50517 0.06705,0.35741 0.06705,0.3574 -0.145438,0.0938 c -0.07999,0.0516 -1.232601,0.0952 -2.561357,0.0969 l -2.415919,0.003 z m -15.766409,-5.97733 c -0.208962,-0.0924 -0.759894,-0.20738 -1.224295,-0.25547 l -0.844365,-0.0874 -0.327452,-0.27554 c -0.180099,-0.15154 -0.521224,-0.33358 -0.758055,-0.40454 -0.236831,-0.071 -0.473848,-0.18217 -0.526704,-0.24713 -0.171524,-0.21082 -0.253744,-1.26204 -0.187533,-2.3977 l 0.03797,-0.6513 0.247137,0.0284 0.247137,0.0284 -0.05752,-0.42882 -0.05752,-0.42883 0.178741,-0.15277 c 0.267828,-0.22891 1.056792,-0.58051 1.969226,-0.87756 l 0.813524,-0.26486 0.206842,0.1107 0.206841,0.1107 0.482992,-0.0662 0.482991,-0.0662 0.275239,0.2165 c 0.151382,0.11908 0.363022,0.2165 0.470311,0.2165 0.10729,0 0.299421,0.14655 0.426958,0.32566 0.127537,0.17911 0.300298,0.32565 0.383914,0.32565 h 0.152028 l -0.05873,0.15304 -0.05873,0.15305 0.387789,0.35288 0.387788,0.35288 -5.5e-5,0.33535 c -3e-5,0.18444 -0.09773,0.59232 -0.217102,0.9064 -0.119376,0.31408 -0.219255,0.72929 -0.221953,0.92269 -0.0027,0.19339 -0.112807,0.55768 -0.244687,0.80952 l -0.239781,0.45789 -0.540783,0.34296 c -0.427787,0.27129 -1.328384,0.67824 -1.398756,0.63205 -0.0074,-0.005 -0.184458,-0.0845 -0.393419,-0.17689 z m 0.699961,-1.84959 c 0.442665,-0.46444 0.928307,-1.36518 0.928307,-1.72176 v -0.24084 l -0.500801,-0.44083 -0.500802,-0.44082 -0.394746,-0.0631 c -0.21711,-0.0347 -0.498763,-0.0842 -0.625895,-0.10994 l -0.231149,-0.0468 -0.274453,0.21589 c -0.15095,0.11873 -0.364445,0.21663 -0.474434,0.21754 -0.261762,0.002 -0.377981,0.0902 -0.668256,0.50597 l -0.240712,0.3448 0.04178,0.50149 0.04178,0.5015 0.237261,0.25255 c 0.245411,0.26123 0.68581,0.47658 1.52796,0.74715 0.702019,0.22555 0.708007,0.22437 1.134166,-0.22275 z"
         id="path3" />
      <path
         style="fill:#ff0000"
         d="m 13.27913,158.31922 c -0.0691,-0.13433 -0.250925,-0.37857 -0.404058,-0.54276 l -0.278423,-0.29851 h 0.28528 c 0.156905,0 0.322863,-0.0608 0.368797,-0.13513 0.135003,-0.21844 0.05819,-1.36613 -0.159651,-2.38538 l -0.202294,-0.94651 0.116571,-0.0389 c 0.06411,-0.0214 0.10681,-0.15719 0.09488,-0.30182 l -0.02169,-0.26297 2.674833,-0.0285 2.674832,-0.0285 0.639212,0.11591 c 0.351567,0.0637 0.703354,0.14052 0.781749,0.1706 0.0784,0.0301 0.281547,-0.0649 0.451448,-0.21101 l 0.30891,-0.26572 0.129298,0.17683 0.129298,0.17682 0.525137,-0.0217 c 0.288825,-0.0119 1.091502,-0.0359 1.783727,-0.0532 l 1.258589,-0.0315 0.166456,-0.13797 0.166455,-0.13798 0.05737,0.21939 c 0.06897,0.26375 0.317022,0.28096 0.67442,0.0468 l 0.263432,-0.17261 0.381934,0.12605 c 0.210064,0.0693 0.428077,0.0975 0.484473,0.0627 0.0564,-0.0349 0.22832,-0.006 0.382052,0.064 l 0.279512,0.12736 0.267701,-0.12198 0.267701,-0.12197 0.38012,0.15883 c 0.476164,0.19895 1.247999,0.20517 1.529865,0.0123 l 0.214118,-0.1465 0.759859,0.0932 c 0.888334,0.10898 3.274025,0.13827 4.287773,0.0526 1.014105,-0.0857 0.997684,-0.0856 1.384028,-0.008 l 0.352791,0.071 v -0.0991 c 0,-0.0545 0.162197,-0.0801 0.360438,-0.057 l 0.360438,0.0421 0.416327,-0.17395 0.416326,-0.17395 0.173059,0.15101 0.173059,0.15102 1.302614,0.0948 c 1.713148,0.12461 2.958461,0.11034 3.383893,-0.0388 l 0.34446,-0.12074 0.05625,0.14658 0.05625,0.14659 0.793353,-0.0722 c 0.436345,-0.0397 1.355107,-0.056 2.041693,-0.0363 1.225165,0.0352 3.534305,0.0429 3.96212,0.0132 0.119406,-0.008 0.499149,0.0134 0.843872,0.0482 l 0.62677,0.0633 0.369152,-0.15424 0.369151,-0.15424 0.05084,0.13249 0.05084,0.13249 4.543624,-0.0196 4.543625,-0.0196 0.298515,-0.11919 0.298516,-0.11919 v 0.10586 c 0,0.14685 0.404421,0.13333 0.497096,-0.0166 l 0.0757,-0.12249 0.09228,0.1649 0.09228,0.1649 1.005345,0.0231 c 0.55294,0.0127 1.27401,0.0219 1.602377,0.0204 0.328367,-0.002 1.378601,-1.3e-4 2.333851,0.003 0.955251,0.003 2.127604,0.005 2.605229,0.004 0.477626,-9.8e-4 1.259195,1.7e-4 1.73682,0.003 0.477625,0.002 1.014954,-2e-4 1.194063,-0.006 0.17911,-0.005 0.54547,-0.0165 0.814135,-0.0245 0.268664,-0.008 0.593867,-0.0824 0.722673,-0.16543 l 0.234192,-0.15104 0.06114,0.15933 0.06114,0.15932 1.224386,0.004 c 0.673412,0.002 1.834986,0.001 2.581275,-0.002 0.74629,-0.003 1.430163,-0.006 1.519717,-0.006 0.08956,3e-5 0.626884,0.0284 1.194064,0.063 l 1.031236,0.063 0.40111,-0.20986 0.401109,-0.20986 0.05101,0.13294 0.05101,0.13294 1.284698,0.0292 c 1.227343,0.0279 8.637385,0.0532 9.317489,0.0317 0.179109,-0.006 21.330315,0.007 47.002675,0.029 l 46.67703,0.0392 0.6242,0.12823 0.62421,0.12823 0.27134,0.27134 0.27134,0.27134 v 0.67753 0.67752 l -0.16001,0.38296 -0.16001,0.38297 0.16549,0.55726 0.16549,0.55726 -0.13018,0.36001 -0.13018,0.36 -0.41806,-0.10611 -0.41805,-0.10612 -0.44154,0.11208 -0.44154,0.11207 -0.34546,-0.10365 -0.34545,-0.10366 -6.0246,6.9e-4 -6.02459,6.9e-4 -0.34546,0.10297 -0.34546,0.10296 -0.44153,-0.11207 -0.44154,-0.11208 -0.44154,0.11208 -0.44154,0.11207 -0.34546,-0.11241 -0.34546,-0.1124 -2.89414,0.0184 c -1.59178,0.0101 -3.05341,0.064 -3.24808,0.11987 l -0.35395,0.10151 -0.117,-0.0922 c -0.0643,-0.0507 -0.63356,-0.11731 -1.26491,-0.14795 l -1.14791,-0.0557 -0.33627,0.14139 -0.33628,0.1414 -0.68684,-0.21409 -0.68684,-0.21408 -0.45514,0.1143 -0.45513,0.1143 h -2.85639 -2.8564 l -0.37076,0.10634 -0.37076,0.10633 -0.14291,-0.11861 -0.14292,-0.1186 -3.55628,-0.0391 c -1.95595,-0.0215 -3.6784,-0.0402 -3.82765,-0.0415 -1.69367,-0.0149 -6.64952,0.13415 -6.92014,0.20819 l -0.35279,0.0965 -0.40707,-0.1125 -0.40707,-0.11251 -5.10191,-0.0396 c -2.80605,-0.0218 -5.54154,-0.0438 -6.07886,-0.0489 -1.64065,-0.0156 -5.52728,0.16257 -5.67865,0.26032 l -0.14252,0.0921 -0.20999,-0.19004 -0.20999,-0.19003 -0.448,0.17598 -0.44801,0.17598 -0.23072,-0.1294 -0.23071,-0.1294 -3.96212,-0.0254 c -2.17916,-0.014 -4.15751,-0.0297 -4.39632,-0.0349 -0.23882,-0.005 -1.36232,-0.01 -2.49668,-0.0106 -1.13436,-6.3e-4 -2.57538,-0.004 -3.20226,-0.008 -0.62689,-0.004 -1.88256,0.007 -2.79038,0.0233 l -1.65059,0.0298 -0.15172,-0.12592 -0.15173,-0.12592 -0.870299,0.18296 -0.870301,0.18297 -0.746748,-0.14025 -0.746748,-0.14025 -0.705583,0.0628 c -0.388071,0.0346 -1.41388,0.10255 -2.279576,0.15108 -0.865696,0.0485 -1.628098,0.12178 -1.694227,0.16276 -0.06613,0.041 -0.285945,0.0263 -0.48848,-0.0327 -0.489952,-0.14266 -2.119085,-0.14492 -2.585096,-0.004 l -0.371479,0.11267 -0.147584,-0.12248 -0.147584,-0.12248 -0.430455,0.12896 -0.430456,0.12897 -0.461647,-0.12882 -0.461648,-0.12881 -2.2253,-0.0517 c -1.223915,-0.0284 -2.518388,-0.0415 -2.876607,-0.0291 -0.358219,0.0124 -1.115364,0.0219 -1.682544,0.0209 -0.56718,-9.1e-4 -1.348749,-2.1e-4 -1.736819,0.002 -0.388071,0.002 -1.096368,-0.006 -1.573993,-0.0166 -0.783719,-0.0179 -2.024495,-0.0301 -3.202261,-0.0313 -1.785694,-0.002 -2.794466,0.0109 -4.4506,0.0563 l -1.899646,0.0521 -0.313697,0.12653 -0.313698,0.12654 -0.174783,-0.15362 c -0.237412,-0.20866 -1.530895,-0.24669 -7.176337,-0.21099 -0.629367,0.004 -2.532709,0.003 -3.039434,-9.7e-4 -0.438883,-0.004 -11.571685,-0.005 -12.374839,-0.002 -3.228537,0.0144 -4.578365,0.0171 -6.784451,0.0134 -7.729071,-0.013 -9.550503,-0.0109 -10.638019,0.0124 -0.656735,0.0141 -1.560424,-0.015 -2.008198,-0.0646 l -0.814134,-0.0902 -4.342049,0.0762 c -2.388126,0.0419 -4.542448,0.0775 -4.787382,0.079 l -0.445335,0.003 -0.137851,0.1661 c -0.07582,0.0914 -0.276695,0.1661 -0.446393,0.1661 h -0.308543 z m 127.34927,-9.81355 c -0.26357,-0.13724 -0.56855,-0.385 -0.67773,-0.55057 l -0.1985,-0.30104 -7.1e-4,-0.50855 c -3.9e-4,-0.2797 -0.0501,-0.63854 -0.11054,-0.79741 -0.21863,-0.57504 -0.0989,-4.50207 0.20185,-6.61828 0.0509,-0.35821 0.10288,-1.27124 0.1155,-2.02894 l 0.023,-1.37764 -0.16707,-0.25497 c -0.15425,-0.23542 -0.19968,-0.58692 -0.1651,-1.27753 0.007,-0.14925 0.015,-1.18896 0.0167,-2.31045 l 0.003,-2.03908 -0.18175,-0.4759 -0.18175,-0.4759 0.18175,-0.62517 0.18174,-0.62517 -0.0701,-0.71342 c -0.0385,-0.39238 -0.10359,-0.95766 -0.14457,-1.25618 -0.041,-0.29851 -0.0548,-0.90911 -0.0307,-1.35689 0.0374,-0.69532 0.0423,-2.25459 0.0111,-3.56138 -0.005,-0.19751 -0.0556,-0.44699 -0.11309,-0.5544 l -0.10451,-0.19528 0.10918,-0.39542 0.10918,-0.39542 -0.10284,-0.37247 -0.10284,-0.37246 0.15221,-0.0584 0.15221,-0.0584 -0.002,-0.35613 c -10e-4,-0.19586 0.0111,-0.52531 0.0269,-0.73211 l 0.0288,-0.37599 -0.29327,-0.10446 -0.29326,-0.10446 -0.4666,0.13267 c -1.1555,0.32853 -3.21019,1.04067 -3.50602,1.21515 -0.17911,0.10564 -0.5699,0.24108 -0.86841,0.30098 -0.68647,0.13775 -1.38352,0.38691 -2.0082,0.71782 l -0.48848,0.25876 -0.29914,-0.058 -0.29914,-0.058 -0.15608,0.12953 c -0.26086,0.21649 -1.26749,0.43612 -2.00515,0.43748 l -0.69704,0.001 -0.20456,0.18513 -0.20456,0.18512 -0.4366,-0.51078 c -0.24013,-0.28092 -0.50896,-0.51077 -0.59739,-0.51077 h -0.16079 l 0.0713,-0.1154 c 0.0392,-0.0635 -0.008,-0.20326 -0.1054,-0.31065 l -0.17671,-0.19527 0.0199,-0.60802 0.0199,-0.60802 -0.13846,-0.16683 -0.13846,-0.16684 h 0.12184 c 0.18447,0 0.14684,-0.20276 -0.10265,-0.55314 l -0.22449,-0.31527 h 0.1286 0.1286 l -0.0746,-0.24424 c -0.041,-0.13433 -0.091,-0.35136 -0.11097,-0.48228 -0.02,-0.13092 -0.0776,-0.30189 -0.12799,-0.37993 -0.0504,-0.078 -0.0975,-0.67922 -0.10471,-1.33595 -0.007,-0.65674 -0.0688,-1.43831 -0.13687,-1.73682 -0.0681,-0.29852 -0.15431,-0.71373 -0.19159,-0.92269 -0.0373,-0.20896 -0.14248,-0.46592 -0.23377,-0.57103 l -0.166,-0.1911 0.2621,-0.28055 c 0.14415,-0.15431 0.39642,-0.35044 0.56061,-0.43586 l 0.29851,-0.1553 v 0.16311 c 0,0.0897 0.12177,0.2429 0.27059,0.34041 l 0.27059,0.1773 0.35358,-0.0562 c 0.69389,-0.11031 1.33017,-0.30852 1.5085,-0.4699 l 0.18117,-0.16396 0.2248,0.14038 0.22479,0.14039 0.13714,-0.13714 c 0.0754,-0.0754 0.1377,-0.21751 0.13839,-0.31575 l 0.001,-0.1786 0.35366,-0.0919 c 0.35384,-0.092 1.10174,-0.50153 1.92316,-1.05312 0.24033,-0.16139 0.95407,-0.54453 1.58609,-0.85143 0.63202,-0.3069 1.21197,-0.63371 1.28877,-0.72625 0.0768,-0.0925 0.23298,-0.16826 0.34707,-0.16826 0.11409,0 0.3784,-0.17097 0.58736,-0.37993 l 0.37993,-0.37993 h 0.30521 0.30521 l 0.1875,-0.20718 c 0.10312,-0.11395 0.32889,-0.26575 0.50169,-0.33733 0.17281,-0.0716 0.34197,-0.21765 0.37592,-0.3246 0.0925,-0.29151 0.61543,-0.77523 0.77277,-0.71485 0.13482,0.0517 0.34033,-0.0451 2.41393,-1.13742 0.55874,-0.29433 1.12672,-0.53515 1.26218,-0.53515 0.13546,0 0.31261,-0.0799 0.39368,-0.17759 0.39941,-0.48126 1.72289,-1.12441 2.78139,-1.35163 0.34415,-0.0739 0.70284,-0.19965 0.79709,-0.27951 0.0943,-0.0799 0.29588,-0.14519 0.44805,-0.14519 0.15218,0 0.34016,-0.0765 0.41775,-0.16999 0.0776,-0.0935 0.29118,-0.24561 0.47464,-0.33804 0.18346,-0.0924 0.46465,-0.29064 0.62487,-0.440455 l 0.29131,-0.272392 0.51767,0.07763 c 0.71761,0.107613 1.50112,0.718527 1.8839,1.468897 l 0.1938,0.37993 -3.9e-4,0.56983 -3.9e-4,0.56984 0.20249,0.29857 0.20249,0.29858 0.003,3.69074 0.003,3.69074 -0.0963,0.068 c -0.053,0.0374 -0.11516,0.57474 -0.1382,1.19407 -0.023,0.61932 -0.0842,1.46797 -0.1359,1.8859 -0.0517,0.41792 -0.0733,0.81541 -0.0479,0.88331 0.0254,0.0679 -0.0254,0.48311 -0.11285,0.92268 l -0.159,0.79923 0.0287,0.86338 c 0.0158,0.47485 -0.0146,1.02007 -0.0675,1.21159 -0.0529,0.19153 -0.11271,0.65785 -0.13295,1.03628 -0.0202,0.37843 -0.094,1.05929 -0.16388,1.51302 l -0.12709,0.82497 0.12402,0.31482 c 0.0682,0.17315 0.14495,0.60197 0.17053,0.95294 l 0.0465,0.63813 -0.17321,0.1914 -0.17321,0.19139 0.0209,0.52737 c 0.0115,0.29005 -0.0351,0.88651 -0.10355,1.32547 l -0.12447,0.79811 0.0562,0.83016 c 0.0309,0.45659 0.0983,1.0387 0.14981,1.29357 l 0.0937,0.46342 -0.17491,0.48641 -0.17492,0.48641 0.18427,0.51242 0.18427,0.51242 -0.14079,0.16602 -0.14079,0.16603 0.0225,2.55095 0.0226,2.55095 0.22454,0.65398 0.22453,0.65397 -0.11382,0.81147 c -0.0626,0.44631 -0.12944,0.95801 -0.14852,1.13712 -0.0191,0.17911 -0.068,0.59457 -0.10864,0.92324 l -0.0739,0.59758 0.1148,0.41576 0.11479,0.41575 -0.11014,0.28928 c -0.0606,0.1591 -0.1203,0.60679 -0.13272,0.99486 l -0.0226,0.70558 -0.18673,0.36947 c -0.19911,0.39395 -0.25389,1.09597 -0.0855,1.09597 0.0557,0 -0.0714,0.25645 -0.28246,0.56989 l -0.38367,0.5699 0.0479,0.57921 0.0479,0.57921 -0.28108,0.1079 c -0.1546,0.0593 -0.62302,0.10796 -1.04094,0.10802 -0.41792,6e-5 -1.0041,0.0518 -1.30262,0.11506 -0.29851,0.0632 -1.32432,0.1261 -2.27957,0.13972 -0.95525,0.0136 -1.93221,0.0577 -2.17103,0.0979 -0.84468,0.1423 -0.98185,0.13142 -1.45619,-0.11557 z m 3.56813,-1.68723 0.26656,-0.0987 0.95088,0.13458 0.95087,0.13458 0.20517,-0.18567 c 0.11284,-0.10212 0.27329,-0.15998 0.35655,-0.12857 0.0833,0.0314 0.30549,-0.0371 0.49382,-0.15231 l 0.34244,-0.20942 0.0734,-0.36069 c 0.0404,-0.19838 0.16189,-0.60499 0.27011,-0.90357 l 0.19674,-0.54289 0.0634,-1.31592 c 0.0349,-0.72375 0.11517,-1.45213 0.17847,-1.61861 l 0.11508,-0.3027 -0.0687,-0.45845 -0.0687,-0.45845 0.12612,-0.23567 c 0.0694,-0.12962 0.15031,-0.59886 0.17985,-1.04276 l 0.0537,-0.80708 -0.29683,-0.27509 -0.29683,-0.2751 0.12744,-0.12744 c 0.0701,-0.0701 0.12744,-0.31141 0.12744,-0.53625 0,-0.22485 0.0817,-0.58015 0.18156,-0.78955 l 0.18156,-0.38074 -0.14009,-0.30139 c -0.0771,-0.16577 -0.20699,-0.61596 -0.28875,-1.00043 l -0.14866,-0.69904 0.11974,-0.44075 0.11973,-0.44075 0.0318,-3.58219 0.0318,-3.58219 -0.14527,-0.3479 -0.14526,-0.3479 0.12563,-0.33285 0.12564,-0.33286 -0.13716,-0.21963 -0.13717,-0.21964 0.22105,-0.31043 c 0.27928,-0.39221 0.28061,-0.8292 0.004,-1.28305 l -0.21634,-0.35484 0.13431,-0.21506 0.13431,-0.21506 -0.12911,-0.20673 -0.1291,-0.20673 0.25497,-0.064 0.25497,-0.064 0.0931,-0.29917 c 0.10995,-0.35319 0.10739,-1.13541 -0.005,-1.62133 l -0.0801,-0.34519 0.12837,-0.65248 0.12837,-0.65248 -0.1248,-0.358 -0.1248,-0.35799 0.12252,-0.54398 c 0.0674,-0.29918 0.17744,-0.76379 0.24456,-1.03245 0.0671,-0.26867 0.12567,-0.92812 0.13011,-1.46545 0.004,-0.53732 0.0496,-1.3316 0.10033,-1.76504 l 0.0922,-0.78809 -0.20435,-0.22582 -0.20436,-0.22581 0.20927,-0.15302 c 0.1151,-0.0842 0.25412,-0.15303 0.30895,-0.15303 h 0.0997 l -0.044,-0.37682 -0.044,-0.37682 0.14194,-0.0545 0.14195,-0.0545 -0.0462,-0.46425 c -0.0254,-0.25535 -0.11148,-0.63065 -0.19125,-0.83402 l -0.14504,-0.36976 0.11297,-0.0388 0.11297,-0.0388 -0.0141,-1.33748 c -0.008,-0.73561 -0.0461,-1.38928 -0.0852,-1.45259 -0.0391,-0.0633 0.002,-0.14313 0.091,-0.17736 0.21436,-0.0823 0.20613,-0.38335 -0.0172,-0.63014 l -0.17941,-0.19825 -0.0812,-0.97979 -0.0812,-0.97979 -0.18151,-0.27702 -0.1815,-0.27702 -0.44029,0.0744 c -0.24216,0.0409 -0.59845,0.1677 -0.79175,0.28175 l -0.35145,0.20736 -0.17065,-0.0655 -0.17066,-0.0655 -0.6885,0.38503 -0.6885,0.38503 -0.22179,-0.058 -0.22178,-0.058 -0.39003,0.25191 c -0.21451,0.13856 -0.43978,0.35725 -0.50061,0.486 l -0.11058,0.23409 -0.329,0.0723 c -0.18095,0.0397 -0.49829,0.18715 -0.70521,0.32756 l -0.3762,0.2553 -0.21726,-0.0568 c -0.1195,-0.0312 -0.38426,-0.002 -0.58837,0.0657 l -0.37111,0.12248 -0.12707,0.27888 -0.12706,0.27888 -0.15591,-0.0598 c -0.0858,-0.0329 -0.37985,0.0165 -0.65355,0.10973 l -0.49763,0.16956 -0.6443,0.6131 c -0.35436,0.3372 -0.69145,0.59737 -0.74908,0.57816 -0.24221,-0.0807 -1.84542,1.18239 -1.85111,1.45844 -0.001,0.0673 -0.0758,0.18321 -0.16535,0.25754 l -0.16283,0.13513 v -0.23794 -0.23795 l -0.24424,0.0347 -0.24424,0.0347 -0.035,0.30493 c -0.0388,0.33849 -0.0676,0.3545 -0.81839,0.45529 l -0.52769,0.0708 -0.37147,0.37147 -0.37147,0.37146 h -0.3137 -0.31371 l -0.32252,0.27138 c -0.17738,0.14926 -0.39435,0.27138 -0.48217,0.27138 -0.0878,0 -0.28385,0.0977 -0.43565,0.2171 -0.1518,0.11941 -0.35487,0.2171 -0.45127,0.2171 -0.0964,0 -0.39183,0.19962 -0.65651,0.44359 l -0.48123,0.44359 -0.12369,-0.0764 -0.12369,-0.0764 -0.32916,0.24336 c -0.39931,0.29522 -1.25959,0.53632 -1.64844,0.46199 l -0.28439,-0.0544 -0.36949,0.25318 -0.36948,0.25317 -0.0391,0.54677 c -0.0215,0.30072 -0.005,0.80758 0.0373,1.12636 l 0.0764,0.57959 0.18663,0.20623 0.18663,0.20622 -0.0619,0.81854 -0.0619,0.81854 0.24907,0.4385 0.24907,0.43849 -0.0541,0.48009 -0.0541,0.48009 0.13587,0.1637 c 0.0747,0.09 0.27795,0.1637 0.45163,0.1637 h 0.31577 l 0.0583,-0.15201 0.0583,-0.15202 0.37957,0.1048 c 0.44644,0.12327 1.00688,0.0254 1.08965,-0.19031 0.0321,-0.0836 0.0989,-0.12691 0.14843,-0.0963 0.17888,0.11055 1.121,-0.17968 1.43156,-0.441 l 0.31761,-0.26725 h 0.3531 c 0.39312,0 1.87337,-0.49356 2.12692,-0.70919 0.0896,-0.0762 0.5945,-0.27234 1.1221,-0.43596 0.52759,-0.16362 0.98259,-0.35828 1.0111,-0.43258 l 0.0518,-0.1351 0.20292,0.0531 c 0.11161,0.0292 0.38933,-0.01 0.61716,-0.0865 0.22783,-0.0768 0.60963,-0.14643 0.84845,-0.15479 0.23881,-0.008 0.65402,-0.0523 0.92268,-0.0977 l 0.48848,-0.0825 0.28573,0.11044 c 0.15716,0.0607 0.44098,0.34046 0.63073,0.62161 l 0.34499,0.51119 -0.1151,0.1151 c -0.14898,0.14898 -0.14782,0.67615 0.002,0.95627 l 0.11721,0.21899 -0.18508,0.2045 -0.18507,0.20451 0.0596,0.22789 c 0.0328,0.12534 -0.004,0.37957 -0.0821,0.56495 l -0.14173,0.33706 0.0577,0.44272 c 0.0318,0.24349 0.11078,0.47715 0.17564,0.51924 l 0.11792,0.0765 -0.15762,0.35768 -0.15762,0.35767 0.0138,0.879 c 0.008,0.48344 0.0649,1.06438 0.12751,1.29097 l 0.11376,0.41197 -0.11457,0.21408 -0.11457,0.21407 0.0648,0.34033 c 0.0356,0.18718 0.0785,0.90208 0.0952,1.58866 l 0.0305,1.24834 0.13235,0.23711 c 0.0728,0.1304 0.13234,0.43282 0.13234,0.67204 0,0.23921 0.0488,0.46512 0.10855,0.50202 0.0597,0.0369 0.10855,0.18921 0.10855,0.33847 v 0.27137 l -0.1031,-0.0637 c -0.14638,-0.0905 -0.34833,0.33342 -0.37972,0.79702 -0.0147,0.21652 -0.0647,0.58076 -0.11127,0.80941 l -0.0846,0.41573 0.11387,0.23558 c 0.12486,0.25833 0.22121,1.07057 0.28471,2.39998 l 0.0411,0.8618 -0.14889,0.22723 -0.14889,0.22724 0.0659,0.40619 c 0.0362,0.2234 0.10938,0.43304 0.1625,0.46588 l 0.0966,0.0597 -0.0707,0.53283 -0.0707,0.53284 0.17933,0.0688 0.17934,0.0688 -0.12347,0.14876 c -0.15561,0.1875 -0.0516,0.47719 0.1713,0.47719 h 0.16873 l -0.17204,0.26256 -0.17204,0.26257 0.0204,0.57871 c 0.0112,0.31828 -0.0437,0.73318 -0.12205,0.92198 l -0.14246,0.34327 0.17906,0.45584 0.17906,0.45583 -0.23163,0.44923 -0.23162,0.44923 -0.034,0.70025 -0.034,0.70025 0.17248,0.26323 0.17247,0.26323 -0.11004,0.068 c -0.0605,0.0374 -0.14431,0.25073 -0.18621,0.47405 l -0.0762,0.40604 0.13967,0.7335 c 0.0768,0.40342 0.18791,0.79702 0.24688,0.87467 l 0.10721,0.14118 1.20336,-0.0212 c 0.66185,-0.0117 1.32331,-0.0656 1.46992,-0.11984 z m 31.40961,1.42139 -0.34644,-0.10022 -0.21922,-0.30786 -0.21921,-0.30786 0.10941,-0.39627 0.10941,-0.39626 -0.11088,-0.40158 -0.11088,-0.40159 0.16006,-0.17685 c 0.20772,-0.22954 0.2033,-0.47722 -0.0117,-0.65567 l -0.17177,-0.14255 0.0721,-0.71844 0.0722,-0.71844 -0.1663,-0.13802 -0.1663,-0.13801 0.0694,-0.72397 c 0.0382,-0.39818 0.0723,-1.00095 0.076,-1.3395 l 0.007,-0.61554 -0.24778,-0.26363 -0.24778,-0.26364 0.10891,-0.28644 0.10891,-0.28645 -0.14665,-0.13699 -0.14664,-0.13698 0.0999,-0.26277 c 0.11993,-0.31545 0.10545,-1.0191 -0.0488,-2.36962 l -0.11467,-1.0041 h -0.10871 c -0.0598,0 -0.008,-0.1099 0.11524,-0.24424 0.12317,-0.13433 0.25523,-0.43963 0.29347,-0.67844 0.0382,-0.23881 0.0979,-0.59364 0.13268,-0.78849 l 0.0632,-0.35429 -0.13772,-0.16593 -0.13771,-0.16593 0.12566,-0.12567 0.12566,-0.12566 v -0.73814 -0.73815 h -0.0995 c -0.0547,0 0.006,-0.19402 0.13569,-0.43115 l 0.23522,-0.43115 -0.14192,-0.22866 -0.14192,-0.22867 0.12808,-0.15432 0.12807,-0.15432 -0.13513,-0.16283 c -0.0743,-0.0896 -0.23442,-0.16283 -0.35577,-0.16283 h -0.22064 l 0.19397,-0.21433 c 0.10668,-0.11788 0.28968,-0.24471 0.40666,-0.28184 l 0.2127,-0.0675 -0.0487,-0.63813 c -0.0267,-0.35098 -0.10533,-0.70644 -0.17461,-0.78992 -0.0693,-0.0835 -0.0956,-0.23083 -0.0585,-0.32745 l 0.0674,-0.17567 -0.18847,-0.0723 -0.18847,-0.0723 -0.21312,0.1331 -0.21312,0.1331 -0.191,-0.17286 -0.19101,-0.17286 -0.17853,0.0685 -0.17852,0.0685 v -0.10533 c 0,-0.0579 -0.28314,-0.16542 -0.62919,-0.23886 l -0.62919,-0.13352 -0.43969,0.1184 -0.4397,0.11839 -1.45493,-0.038 -1.45493,-0.038 -0.21825,0.0981 -0.21825,0.0981 -0.64862,-0.10171 -0.64862,-0.10171 -0.27292,0.10883 c -0.29579,0.11797 -1.26985,0.12838 -2.38967,0.0255 l -0.70558,-0.0648 -0.9443,0.2065 -0.94431,0.20649 -0.54896,-0.11246 -0.54896,-0.11245 -0.63002,0.13013 c -0.81181,0.16768 -1.48503,0.16555 -1.76302,-0.006 l -0.22043,-0.13569 -0.19215,0.25289 -0.19216,0.2529 -0.67318,-0.64256 -0.67318,-0.64256 0.15296,-0.37019 0.15296,-0.3702 -0.0946,-0.54275 c -0.052,-0.29852 -0.12719,-0.77725 -0.167,-1.06386 l -0.0724,-0.52109 0.19492,-0.57343 0.19491,-0.57342 -0.0727,-0.28951 -0.0727,-0.28951 -0.24217,-0.004 -0.24218,-0.004 0.29852,-0.24441 c 0.34728,-0.28434 0.36249,-0.36558 0.11887,-0.63478 l -0.17966,-0.19851 0.18336,-0.20261 0.18336,-0.20261 -0.1258,-0.53011 c -0.13844,-0.5834 -0.19866,-2.9558 -0.0761,-2.99942 0.0423,-0.0151 0.0911,-0.24719 0.10855,-0.51585 l 0.0317,-0.48848 0.14863,-0.11656 0.14863,-0.11655 -0.0782,-0.77899 c -0.043,-0.42845 -0.1099,-0.77895 -0.14862,-0.77889 -0.11784,1.8e-4 -0.0354,-1.75401 0.0975,-2.07491 0.0684,-0.16512 0.0949,-0.34784 0.059,-0.40605 -0.036,-0.0582 -0.005,-0.1261 0.0697,-0.15086 l 0.13509,-0.045 -0.13041,-0.28622 -0.13041,-0.28622 0.15883,-0.38012 0.15882,-0.38012 v -0.72766 -0.72766 l -0.18068,-0.19965 -0.18068,-0.19965 0.24519,-0.26099 0.2452,-0.261 0.0458,-0.83572 0.0458,-0.83573 -0.16524,-0.33122 -0.16523,-0.33122 0.17149,-0.18949 c 0.0943,-0.10422 0.21146,-0.47473 0.26031,-0.82336 l 0.0888,-0.63387 -0.22496,-0.59703 -0.22496,-0.59703 0.0245,-0.63726 0.0245,-0.63725 -0.1935,-0.21382 -0.19351,-0.21382 0.20928,-0.15302 c 0.32034,-0.234246 0.58542,-0.18455 0.90975,0.17054 0.34847,0.38152 0.80653,0.49849 1.35699,0.3465 l 0.39771,-0.10981 v 0.0998 c 0,0.12922 0.4537,0.12829 0.79541,-0.002 l 0.2668,-0.10144 0.50381,0.15163 0.50381,0.15162 0.29484,-0.1131 c 0.16216,-0.0622 0.47815,-0.0842 0.7022,-0.0489 l 0.40737,0.0642 0.37569,-0.15697 0.37569,-0.15697 0.44107,0.17326 0.44108,0.17326 0.51269,-0.11773 0.51268,-0.11773 0.18997,0.17121 c 0.10448,0.0942 0.18996,0.24557 0.18996,0.33645 0,0.0909 0.14738,0.29091 0.32751,0.44452 l 0.3275,0.27928 -0.12284,0.43365 -0.12285,0.43365 0.0776,0.59759 c 0.14588,1.12324 0.006,3.676 -0.25795,4.72253 -0.0603,0.23881 -0.16136,0.75171 -0.2245,1.13978 l -0.11481,0.70559 0.14957,0.69905 0.14957,0.69905 -0.15014,0.35932 -0.15013,0.35933 0.16285,0.38974 0.16284,0.38975 -0.11856,0.22153 -0.11856,0.22154 0.0428,0.75744 0.0428,0.75744 0.18808,0.13753 0.18808,0.13753 1.3817,0.0136 c 1.62007,0.0159 2.2963,0.0941 2.52308,0.29171 0.0904,0.0788 0.35911,0.19063 0.59704,0.24852 0.23793,0.0579 0.58891,0.1682 0.77995,0.24513 l 0.34735,0.13988 0.21215,-0.19199 0.21214,-0.19198 0.2275,0.14207 0.2275,0.14208 0.21874,-0.1366 0.21874,-0.13661 0.33819,0.19191 c 0.18601,0.10555 0.44172,0.25224 0.56826,0.32599 0.30878,0.17997 0.7766,0.17228 0.96473,-0.0159 l 0.15315,-0.15314 -0.0356,-1.61082 c -0.0196,-0.88594 -0.032,-1.92832 -0.0277,-2.31639 0.004,-0.38807 -0.0514,-1.34217 -0.12391,-2.12022 l -0.1318,-1.41463 0.1836,-0.80723 0.1836,-0.80723 -0.14238,-0.11199 -0.14238,-0.11199 v -0.45257 -0.45258 l 0.24424,-0.26 c 0.28195,-0.30015 0.30663,-0.53523 0.0917,-0.874 -0.0839,-0.13223 -0.18615,-0.4969 -0.22729,-0.81037 l -0.0748,-0.56995 0.34286,-0.51556 0.34287,-0.51557 -0.0258,-0.48848 c -0.0142,-0.26866 0.009,-0.6106 0.0522,-0.75985 l 0.078,-0.27138 0.56491,-0.0172 c 0.3107,-0.01 0.76029,-0.0265 0.99911,-0.0378 0.23881,-0.0113 0.5924,0.0141 0.78574,0.0565 l 0.35154,0.077 0.0641,-0.16712 0.0641,-0.16711 0.39846,0.14493 c 0.21916,0.0797 0.55196,0.22368 0.73955,0.31992 l 0.34109,0.17498 0.7987,0.0123 0.79871,0.0123 0.54275,0.19219 c 0.57549,0.20377 1.57399,0.26231 1.57399,0.0923 0,-0.0557 0.12222,-0.0212 0.27158,0.0767 l 0.27158,0.17794 0.29637,-0.0566 0.29636,-0.0567 0.30047,0.15538 0.30046,0.15537 v 0.21432 c 0,0.11787 0.0411,0.21431 0.0914,0.21431 0.26505,0 0.41203,1.15013 0.2162,1.6917 l -0.12665,0.35023 0.19677,0.62555 0.19676,0.62556 -0.13167,0.51374 -0.13167,0.51375 0.11325,0.81423 0.11325,0.81423 -0.0669,0.86766 -0.0669,0.86766 0.23231,0.47989 c 0.27511,0.5683 0.28454,0.64168 0.072,0.56012 l -0.1603,-0.0615 -0.1283,0.28158 -0.1283,0.28159 0.18005,0.19895 c 0.099,0.10942 0.18005,0.25905 0.18005,0.3325 v 0.13355 l -0.11788,-0.0729 -0.11788,-0.0729 0.0734,0.58777 c 0.0404,0.32327 0.0812,0.91249 0.0907,1.30938 l 0.0173,0.72161 0.13569,0.13567 0.13568,0.13567 v 0.51464 c 0,0.28305 -0.0488,0.54483 -0.10855,0.58173 -0.18323,0.11324 -0.12081,0.55217 0.12252,0.86151 l 0.23107,0.29376 -0.12252,0.12252 -0.12252,0.12252 v 0.63498 0.63499 l -0.16964,0.32806 -0.16965,0.32806 0.13166,0.15865 c 0.0724,0.0872 0.1854,0.14053 0.25106,0.1184 l 0.1194,-0.0403 0.11589,0.5062 c 0.0637,0.27841 0.10225,0.88714 0.0856,1.35274 l -0.0303,0.84653 0.16032,0.38371 0.16033,0.38371 -0.0667,0.35577 -0.0667,0.35576 0.18566,0.73961 0.18566,0.73962 -0.076,1.17484 -0.076,1.17483 0.18931,0.20919 0.18931,0.20919 -0.1715,0.18997 -0.1715,0.18996 -0.0167,0.75986 c -0.0285,1.29583 0.0601,2.48531 0.20502,2.75022 0.0763,0.13944 0.1101,0.28209 0.0752,0.31698 -0.0349,0.0349 0.008,0.17245 0.0953,0.30566 l 0.1587,0.2422 -0.10404,0.36278 c -0.0572,0.19953 -0.10404,0.57945 -0.10404,0.84427 0,0.26482 -0.0587,0.64393 -0.13054,0.84247 l -0.13053,0.36098 0.23471,0.89135 0.23471,0.89135 -0.15845,0.17509 c -0.19715,0.21785 -0.19734,0.43644 -9.7e-4,1.17419 l 0.1549,0.58199 -0.12545,0.20087 -0.12544,0.20087 0.1239,0.46421 0.12391,0.4642 -0.12752,0.15364 -0.12751,0.15364 -0.0182,2.85923 -0.0182,2.85923 -0.18615,0.57059 c -0.10238,0.31383 -0.23838,0.63632 -0.30223,0.71666 l -0.11609,0.14606 -0.39247,-0.0628 c -0.21586,-0.0345 -0.54669,-0.0185 -0.73517,0.0355 l -0.3427,0.0983 -0.32844,-0.12398 -0.32845,-0.12397 -0.32565,0.12292 -0.32565,0.12292 -0.32114,-0.12121 -0.32115,-0.12122 -0.77504,0.20102 c -0.42628,0.11056 -0.88957,0.21359 -1.02955,0.22896 -0.13997,0.0154 -0.30905,0.0617 -0.37573,0.10286 -0.0667,0.0412 -0.86324,0.0926 -1.77016,0.11413 -0.90691,0.0216 -1.81957,0.0901 -2.02814,0.15242 -0.4498,0.13428 -1.00853,0.13181 -1.48694,-0.007 z m 2.89046,-1.66577 c 0.0857,-0.0537 0.55344,-0.10629 1.03934,-0.11693 0.4859,-0.0106 0.97339,-0.0697 1.08332,-0.13119 0.10992,-0.0615 0.38668,-0.0868 0.61502,-0.0562 l 0.41516,0.0557 0.1461,-0.12125 c 0.0804,-0.0667 0.35275,-0.19416 0.60533,-0.28328 l 0.45923,-0.16202 0.23698,0.14748 0.23698,0.14749 0.82425,-0.0285 c 0.45333,-0.0157 0.92949,-0.0619 1.05812,-0.1027 l 0.23387,-0.0742 0.0602,-0.29128 c 0.0331,-0.16021 0.13711,-0.4473 0.23117,-0.63799 l 0.17101,-0.34671 -0.0791,-0.3046 c -0.0435,-0.16753 -0.0987,-1.18386 -0.12267,-2.25852 -0.0239,-1.07466 -0.08,-2.88203 -0.12465,-4.01639 -0.075,-1.90556 -0.0576,-2.40738 0.14078,-4.07067 l 0.0712,-0.59704 -0.1197,-0.64566 -0.1197,-0.64567 -0.2734,-0.28537 -0.2734,-0.28537 0.1751,-0.41908 0.1751,-0.41907 -0.0728,-0.58241 -0.0728,-0.58241 0.12527,-0.15095 0.12527,-0.15094 0.0104,-1.7701 0.0104,-1.7701 -0.12349,-0.37993 c -0.11133,-0.34254 -0.13063,-0.51269 -0.14158,-1.24834 -0.002,-0.11941 0.0299,-0.35075 0.0704,-0.5141 0.10421,-0.42031 -0.0246,-0.98609 -0.30598,-1.34378 l -0.24063,-0.30591 -0.013,-0.9263 c -0.007,-0.50947 -0.0726,-1.07285 -0.14532,-1.25196 l -0.13226,-0.32565 -0.0512,-2.05838 c -0.0282,-1.13211 -0.0965,-2.11287 -0.15174,-2.17948 l -0.1005,-0.12109 0.10505,-0.36629 0.10505,-0.3663 -0.0618,-0.71077 c -0.034,-0.39092 -0.0818,-1.34579 -0.10621,-2.12193 -0.0244,-0.77614 -0.0545,-1.72868 -0.067,-2.11675 -0.0124,-0.38807 -0.007,-1.21849 0.0126,-1.84537 0.0194,-0.62688 0.004,-1.38403 -0.0342,-1.68255 -0.0382,-0.29851 -0.0763,-0.97583 -0.0848,-1.50514 l -0.0154,-0.96239 -0.34476,-0.14405 c -0.18962,-0.0792 -0.68707,-0.16917 -1.10544,-0.19987 -0.41837,-0.0307 -1.00059,-0.13851 -1.29383,-0.23958 -0.29323,-0.10107 -0.72854,-0.19424 -0.96736,-0.20704 -0.71142,-0.0381 -1.58201,-0.16452 -2.36114,-0.34275 -0.40308,-0.0922 -0.84797,-0.13876 -0.98866,-0.10345 l -0.25579,0.0642 -0.17826,0.46678 -0.17827,0.46678 v 1.25013 1.25014 l 0.12567,0.12566 0.12566,0.12566 -0.14926,0.17984 -0.14925,0.17984 -0.0177,2.99988 -0.0177,2.99989 0.15355,0.71065 0.15356,0.71065 -0.16261,0.38918 -0.16261,0.38917 0.0927,0.32335 c 0.051,0.17784 0.1463,0.42343 0.21176,0.54576 l 0.11904,0.22241 -0.16139,0.38626 c -0.0888,0.21245 -0.16248,0.64429 -0.16381,0.95965 l -0.002,0.57338 -0.18755,0.23252 c -0.10316,0.12788 -0.33996,0.30903 -0.52624,0.40256 l -0.33868,0.17003 -0.41699,-0.21259 -0.41699,-0.21259 h -0.57947 c -0.31871,0 -0.71138,-0.0675 -0.8726,-0.14995 l -0.29312,-0.14994 -0.54276,0.0298 -0.54275,0.0298 -1.30262,-0.32858 -1.30261,-0.32857 -0.97696,-0.0284 c -0.53733,-0.0156 -1.09908,-0.0756 -1.24834,-0.1333 -0.14926,-0.0577 -0.61929,-0.11051 -1.04452,-0.11737 -0.42523,-0.007 -0.88981,-0.0568 -1.03241,-0.11106 l -0.25928,-0.0986 -0.20986,-0.58245 -0.20985,-0.58245 -0.035,-0.97696 -0.035,-0.97696 0.12865,-0.24424 0.12864,-0.24424 -0.13848,-0.25876 -0.13848,-0.25876 0.14352,-0.39691 0.14353,-0.39691 -0.12802,-0.205 -0.12803,-0.205 0.12846,-0.0428 0.12846,-0.0428 -0.13231,-1.07757 -0.13231,-1.07757 0.12212,-0.86841 c 0.11229,-0.79845 0.23117,-3.10099 0.24995,-4.84119 l 0.008,-0.71625 -0.14551,-0.17512 -0.14551,-0.17512 -2.68201,0.0345 -2.68201,0.0345 -0.22628,0.1211 c -0.31896,0.17071 -0.37735,0.39778 -0.24124,0.9383 l 0.11831,0.46987 -0.10524,0.68924 -0.10525,0.68923 0.0734,0.86841 c 0.0404,0.47762 0.0362,1.08822 -0.009,1.35689 -0.0455,0.26866 -0.13936,0.84264 -0.20863,1.2755 l -0.12594,0.78701 0.11518,0.45379 0.11519,0.45379 -0.21316,0.29935 -0.21316,0.29935 0.0964,0.7937 0.0964,0.79369 -0.10093,0.27017 c -0.0555,0.1486 -0.11902,0.53938 -0.14112,0.86841 -0.0221,0.32903 -0.0888,0.9392 -0.14823,1.35593 l -0.10803,0.75768 0.1254,0.1511 0.1254,0.1511 0.0179,1.15369 0.0179,1.15369 -0.11439,0.21642 -0.11439,0.21642 -0.0274,2.98584 -0.0274,2.98584 0.10832,0.35362 c 0.0596,0.1945 0.20641,0.40612 0.32628,0.47027 l 0.21795,0.11664 2.11145,-0.003 2.11144,-0.003 0.34856,-0.18078 0.34855,-0.18079 2.32039,-0.0307 c 1.27621,-0.0169 2.35087,-0.0725 2.38812,-0.12356 0.11337,-0.15537 1.42427,-0.16912 2.40159,-0.0252 0.50748,0.0747 1.19135,0.12195 1.51972,0.10493 0.32837,-0.017 0.71915,-0.0265 0.86841,-0.021 0.14926,0.006 1.00943,0.0124 1.91149,0.0154 l 1.6401,0.005 0.2324,0.21651 0.23241,0.21652 0.009,0.8099 c 0.005,0.44545 0.0124,1.14064 0.0171,1.54488 0.005,0.40423 -0.0463,0.83744 -0.11331,0.96269 -0.067,0.12524 -0.0952,0.25438 -0.0626,0.28697 0.0326,0.0326 0.003,0.16433 -0.0657,0.29277 l -0.12498,0.23352 -0.059,1.75684 c -0.12111,3.60525 -0.0419,8.03925 0.15552,8.70411 0.0532,0.17911 0.0804,0.88449 0.0604,1.5675 l -0.0363,1.24186 0.11418,0.34596 c 0.0628,0.19028 0.11779,0.92592 0.1222,1.63475 l 0.008,1.2888 0.14705,0.23474 0.14705,0.23474 0.79072,-0.0204 c 0.4349,-0.0112 0.86087,-0.0643 0.94662,-0.11795 z M 13.930437,94.274004 c -0.0691,-0.134333 -0.250924,-0.378573 -0.404057,-0.542757 l -0.278424,-0.298515 h 0.285281 c 0.156904,0 0.322863,-0.06081 0.368796,-0.135132 0.135003,-0.218439 0.05819,-1.366124 -0.159651,-2.385374 l -0.202294,-0.946512 0.116571,-0.03886 c 0.06411,-0.02137 0.106811,-0.157193 0.09488,-0.301826 l -0.02169,-0.26297 2.674833,-0.02849 2.674832,-0.02849 0.639212,0.115911 c 0.351566,0.06375 0.703353,0.140525 0.781748,0.170608 0.0784,0.03008 0.281547,-0.06488 0.451448,-0.211017 l 0.308911,-0.265714 0.129297,0.176825 0.129298,0.176825 0.525137,-0.02168 c 0.288826,-0.01192 1.091503,-0.03588 1.783727,-0.05322 l 1.25859,-0.03154 0.166455,-0.137977 0.166455,-0.137977 0.05737,0.219391 c 0.06897,0.263753 0.317022,0.280959 0.674421,0.04678 l 0.263432,-0.172608 0.381934,0.12605 c 0.210063,0.06933 0.428076,0.09753 0.484473,0.06268 0.0564,-0.03485 0.228319,-0.0061 0.382051,0.06398 l 0.279513,0.127354 0.2677,-0.121972 0.267701,-0.121973 0.38012,0.158824 c 0.476164,0.198954 1.247999,0.205175 1.529865,0.01233 l 0.214118,-0.146493 0.759859,0.09322 c 0.888334,0.108982 3.274025,0.138266 4.287773,0.05263 1.014106,-0.08567 0.997684,-0.08557 1.384028,-0.0078 l 0.352792,0.07102 v -0.09907 c 0,-0.05449 0.162197,-0.08014 0.360438,-0.057 l 0.360438,0.04208 0.416326,-0.173952 0.416326,-0.173952 0.173059,0.151015 0.173059,0.151015 1.302614,0.09475 c 1.713148,0.124612 2.958462,0.110338 3.383894,-0.03879 l 0.344459,-0.12074 0.05625,0.146587 0.05625,0.146586 0.793354,-0.0722 c 0.436344,-0.03971 1.355106,-0.05604 2.041692,-0.03629 1.225166,0.03524 3.534306,0.04293 3.96212,0.0132 0.119406,-0.0083 0.499149,0.01337 0.843872,0.04816 l 0.626771,0.06325 0.369151,-0.154241 0.369152,-0.154242 0.05084,0.132492 0.05084,0.132492 4.543625,-0.01957 4.543624,-0.01957 0.298516,-0.119193 0.298516,-0.119192 v 0.105864 c 0,0.146852 0.40442,0.133325 0.497095,-0.01663 l 0.0757,-0.122491 0.09228,0.164901 0.09228,0.164901 1.005345,0.02308 c 0.55294,0.01269 1.27401,0.02187 1.602377,0.02039 0.328368,-0.0015 1.378601,-1.34e-4 2.333852,0.003 0.95525,0.0031 2.127603,0.0049 2.605229,0.0039 0.477625,-9.77e-4 1.259194,1.72e-4 1.736819,0.0025 0.477626,0.0024 1.014954,-1.99e-4 1.194064,-0.0057 0.179109,-0.0055 0.54547,-0.01654 0.814134,-0.02446 0.268664,-0.0079 0.593867,-0.08236 0.722673,-0.165434 l 0.234192,-0.151036 0.06114,0.159326 0.06114,0.159326 1.224385,0.0042 c 0.673412,0.0023 1.834986,0.0015 2.581276,-0.0018 0.746289,-0.0033 1.430162,-0.006 1.519717,-0.0059 0.08956,3e-5 0.626883,0.02838 1.194063,0.06301 l 1.031237,0.06296 0.401109,-0.20986 0.401109,-0.20986 0.05101,0.132936 0.05101,0.132936 1.284698,0.02923 c 1.227343,0.02793 8.637384,0.05317 9.317488,0.03175 0.179109,-0.0056 21.33032,0.0074 47.00268,0.02897 l 46.67702,0.03923 0.62421,0.128234 0.62421,0.128234 0.27134,0.271339 0.27134,0.27134 v 0.677523 0.677524 l -0.16001,0.382963 -0.16002,0.382962 0.16549,0.557263 0.16549,0.557263 -0.13018,0.360004 -0.13018,0.360004 -0.41805,-0.106113 -0.41805,-0.106114 -0.44154,0.112075 -0.44154,0.112074 -0.34546,-0.103654 -0.34546,-0.103654 -6.02459,6.9e-4 -6.02459,6.9e-4 -0.34546,0.102964 -0.34546,0.102964 -0.44154,-0.112074 -0.44154,-0.112075 -0.44153,0.112075 -0.44154,0.112074 -0.34546,-0.112408 -0.34546,-0.112408 -2.89414,0.01836 c -1.59178,0.0101 -3.05342,0.06404 -3.24809,0.119871 l -0.35394,0.10151 -0.117,-0.09224 c -0.0643,-0.05073 -0.63356,-0.117309 -1.26491,-0.147945 l -1.14791,-0.0557 -0.33628,0.141393 -0.33627,0.141393 -0.68684,-0.214082 -0.68684,-0.214082 -0.45514,0.114301 -0.45513,0.1143 h -2.8564 -2.85639 l -0.37076,0.106334 -0.37076,0.106333 -0.14292,-0.118606 -0.14291,-0.118606 -3.55628,-0.03909 c -1.95595,-0.0215 -3.6784,-0.04017 -3.82766,-0.04148 -1.69366,-0.01495 -6.64952,0.134151 -6.92014,0.208194 l -0.35279,0.09653 -0.40706,-0.112506 -0.40707,-0.112506 -5.10191,-0.03965 c -2.80605,-0.02181 -5.54154,-0.04383 -6.07887,-0.04894 -1.64064,-0.0156 -5.52728,0.162565 -5.67864,0.260317 l -0.14253,0.09205 -0.20998,-0.190035 -0.20999,-0.190035 -0.44801,0.175982 -0.448,0.175982 -0.23072,-0.129402 -0.23071,-0.129402 -3.96212,-0.0254 c -2.17917,-0.01397 -4.15751,-0.02966 -4.39633,-0.03486 -0.23881,-0.0052 -1.36231,-0.01 -2.49667,-0.01059 -1.13436,-6.25e-4 -2.57538,-0.0041 -3.20227,-0.0076 -0.62688,-0.0036 -1.88255,0.0069 -2.79037,0.02328 l -1.65059,0.02978 -0.15173,-0.125921 -0.15172,-0.125921 -0.8703,0.182965 -0.870305,0.182966 -0.746748,-0.14025 -0.746748,-0.14025 -0.705583,0.06284 c -0.38807,0.03456 -1.413879,0.102549 -2.279575,0.151086 -0.865696,0.04854 -1.628098,0.12178 -1.694227,0.162761 -0.06613,0.04098 -0.285945,0.02626 -0.488481,-0.03272 -0.489952,-0.142665 -2.119085,-0.144926 -2.585096,-0.0036 l -0.371479,0.112668 -0.147584,-0.122484 -0.147583,-0.122483 -0.430456,0.128967 -0.430455,0.128968 -0.461648,-0.128816 -0.461647,-0.128817 -2.2253,-0.05167 c -1.223915,-0.02842 -2.518389,-0.04149 -2.876608,-0.02906 -0.358219,0.01243 -1.115363,0.02186 -1.682544,0.02095 -0.56718,-9.13e-4 -1.348748,-2.1e-4 -1.736819,0.0016 -0.388071,0.0018 -1.096367,-0.0057 -1.573993,-0.01665 -0.783718,-0.01793 -2.024495,-0.03005 -3.202261,-0.03127 -1.785694,-0.0018 -2.794466,0.01091 -4.4506,0.05629 l -1.899646,0.05205 -0.313697,0.126535 -0.313697,0.126535 -0.174784,-0.153616 c -0.237412,-0.208661 -1.530895,-0.24669 -7.176337,-0.210988 -0.629367,0.004 -2.532709,0.0034 -3.039434,-9.78e-4 -0.438883,-0.0038 -11.571685,-0.0054 -12.374839,-0.0018 -3.228536,0.01441 -4.578364,0.01707 -6.784451,0.01335 -7.72907,-0.01301 -9.550502,-0.01089 -10.638019,0.01241 -0.656735,0.01407 -1.560424,-0.01501 -2.008198,-0.06463 l -0.814134,-0.09021 -4.342049,0.07623 c -2.388125,0.04193 -4.542448,0.07749 -4.787382,0.07904 l -0.445334,0.0028 -0.137851,0.166101 c -0.07582,0.09136 -0.276696,0.1661 -0.446394,0.1661 h -0.308543 z"
         id="path4" />
    </g>
  </g>
</svg>
